<svg width="278" height="275" viewBox="0 0 278 275" fill="none" xmlns="http://www.w3.org/2000/svg">
<path d="M122.291 67.4513C122.026 67.127 122.035 66.836 122.087 66.5672C122.16 66.2291 122.083 65.8937 121.934 65.5749C121.842 65.3393 121.792 65.126 121.736 64.8821C122.026 64.3335 122.015 63.7903 122.039 63.2388C122.057 62.4961 122.076 61.7534 122.101 61.0412C122.094 61.0107 122.123 60.9719 122.116 60.9414C121.848 59.9436 122.256 58.9184 122.325 57.9069C122.364 57.4164 122.481 56.9397 122.405 56.4436C122.363 56.2607 122.436 56.0834 122.465 55.8839C122.584 55.2465 122.817 54.6148 122.935 53.9774C123.039 53.4398 123.336 52.9216 123.59 52.3813C123.663 52.204 123.772 52.0184 123.809 51.8494C124.03 50.8352 124.495 49.893 124.952 48.9205C125.556 47.5932 126.281 46.3021 127.014 45.0414C127.681 43.8279 128.485 42.7113 129.325 41.5865C130.338 40.229 131.388 38.8631 132.487 37.55C133.051 36.874 133.622 36.2285 134.316 35.6191C134.756 35.2285 135.147 34.7853 135.551 34.403C136.324 33.6468 137.061 32.8988 137.848 32.2035C138.635 31.5082 139.502 30.8268 140.332 30.1537C140.938 29.6607 141.58 29.1594 142.187 28.6663C142.288 28.6109 142.346 28.5333 142.447 28.478C144.481 27.1097 146.551 25.7332 148.542 24.3428C150.634 22.897 152.833 21.5871 155.054 20.3686C156.841 19.4105 158.686 18.5354 160.474 17.5773C163.314 16.0875 166.339 14.9081 169.321 13.7065C171.057 13.0172 172.814 12.4193 174.6 11.7826C175.752 11.3563 176.926 11.0215 178.092 10.6561C178.445 10.5427 178.813 10.3293 179.166 10.2158C179.554 10.0941 179.928 10.0721 180.324 9.9808C181.361 9.70964 182.433 9.43018 183.456 9.09805C184.615 8.70221 185.824 8.5198 186.997 8.18494C189.07 7.6426 191.15 7.29142 193.251 6.87103C193.431 6.82953 193.618 6.81852 193.79 6.74654C195.519 6.18742 197.324 5.96367 199.065 5.62628C199.425 5.54328 199.77 5.56008 200.137 5.50757C200.468 5.46337 200.763 5.42744 201.094 5.38324C202.187 5.19522 203.274 4.97679 204.404 4.78049C205.094 4.65329 205.814 4.48724 206.54 4.51248C206.77 4.52366 207.051 4.42683 207.274 4.40752C207.828 4.344 208.424 4.3027 208.978 4.23919C209.201 4.21987 209.424 4.20053 209.604 4.15903C211.438 3.89649 213.236 3.80302 215.056 3.64025C216.465 3.50781 217.86 3.47509 219.234 3.35094C220.456 3.22949 221.65 3.14683 222.872 3.18613C223.907 3.23643 224.956 3.18691 225.955 3.24553C227.263 3.32918 228.586 3.31315 229.909 3.29707C231.54 3.30603 233.179 3.34552 234.788 3.58451C235.492 3.67902 236.211 3.67373 236.915 3.76823C237.849 3.87392 238.79 4.0101 239.76 4.10749C241.046 4.26044 242.361 4.3746 243.647 4.52756C244.933 4.6805 246.218 4.83343 247.511 5.01686C248.488 5.14473 249.451 5.37242 250.392 5.50859C251.333 5.64477 252.245 5.81973 253.171 6.05568C254.42 6.37765 255.706 6.53057 257.021 6.64473C257.56 6.68096 258.041 6.7948 258.543 7.00008C260.042 7.58544 261.607 7.96298 263.23 8.26295C264.142 8.43791 264.967 8.72924 265.8 9.05104C266.718 9.41724 267.629 9.75292 268.649 9.90299C269.044 9.97242 269.453 10.1029 269.833 10.2721C270.472 10.5744 271.19 10.7298 271.93 10.816C272.512 10.8745 273.101 10.9635 273.725 11.0441C274.359 10.8337 274.964 10.6621 275.469 10.2245C275.715 9.97513 276.068 9.86167 276.435 9.80917C276.766 9.76496 277.089 9.69029 277.377 9.62389C277.529 9.46044 277.645 9.30519 277.797 9.14174C277.747 9.08907 277.733 9.02814 277.654 9.01426C276.541 8.62858 275.436 8.27342 274.36 7.87946C273.7 7.6464 273.076 7.40505 272.379 7.34103C272.07 7.31595 271.776 7.19115 271.518 7.05803C271.13 6.85832 270.692 6.76663 270.254 6.67499C269.385 6.52223 268.574 6.29196 267.807 5.92306C267.033 5.52367 266.201 5.20185 265.404 4.87175C265.275 4.80517 265.146 4.73858 265.031 4.733C263.946 4.63001 262.949 4.2499 261.806 4.2245C261.123 4.22146 260.484 4.07993 259.86 3.83857C259.322 3.64158 258.726 3.52216 258.188 3.32517C257.736 3.17258 257.226 3.09751 256.803 2.90612C256.128 2.61208 255.41 2.45663 254.677 2.40089C253.866 2.3313 253.061 2.29212 252.249 2.2225C251.559 2.18896 250.898 2.11667 250.281 1.9058C249.369 1.5701 248.378 1.54198 247.387 1.35311C246.36 1.17256 245.252 1.29959 244.232 1.14951C243.492 1.06331 242.752 0.977128 242.012 0.890914C241.897 0.885314 241.782 0.879707 241.696 0.835329C240.771 0.438659 239.75 0.449322 238.686 0.437802C238.118 0.440345 237.558 0.312637 237.005 0.21541C236.215 0.0765336 235.41 0.0374484 234.554 0.10638C234.367 0.117385 234.181 0.128398 234.03 0.131097C232.995 0.0807982 231.96 0.0304698 230.932 0.0106515C230.357 -0.0173015 229.796 0.0157738 229.235 0.0487895C228.186 0.0982523 227.093 0.125527 226.007 0.183281C225.892 0.177704 225.777 0.172119 225.698 0.158228C224.146 0.00239666 222.578 0.107027 221.004 0.181222C219.954 0.230678 218.933 0.241384 217.898 0.351834C216.265 0.503584 214.625 0.624838 212.963 0.976129C211.876 1.19463 210.79 1.4131 209.633 1.32672C209.36 1.29335 209.072 1.35975 208.784 1.42615C206.892 1.76626 205.043 2.12861 203.15 2.4687C202.747 2.52952 202.374 2.55146 201.964 2.58178C201.669 2.6177 201.403 2.61482 201.115 2.68121C198.1 3.24811 195.078 3.78455 192.07 4.38194C190.732 4.65854 189.421 5.05708 188.097 5.39463C187.989 5.41953 187.881 5.44443 187.773 5.46932C186.737 5.7405 185.7 6.0117 184.635 6.32166C183.677 6.60671 182.72 6.89176 181.726 7.18511C181.013 7.3816 180.272 7.61682 179.566 7.84376C178.645 8.12052 177.723 8.39732 176.772 8.71286C175.678 9.06161 174.584 9.41032 173.503 9.82003C171.76 10.4789 170.017 11.1378 168.274 11.7967C167.129 12.2535 165.891 12.6354 164.83 13.2974C164.73 13.3528 164.629 13.4081 164.557 13.4247C163.037 14.0643 161.517 14.7038 159.996 15.3434C159.86 15.407 159.716 15.4403 159.615 15.4957C158.713 16.0246 157.72 16.318 156.862 16.8691C156.53 17.074 156.141 17.1959 155.802 17.3703C154.404 18.046 153.042 18.7133 151.751 19.5248C151.715 19.5331 151.686 19.5718 151.65 19.5801C150.699 20.0564 149.755 20.5632 148.868 21.1531C148.305 21.5076 147.685 21.7789 147.087 22.1418C145.782 22.8922 144.563 23.6871 143.315 24.5208C141.44 25.7561 139.621 27.0745 137.796 28.3625C137.731 28.4095 137.702 28.4483 137.637 28.4954C136.773 28.8553 136.245 29.523 135.58 30.0937C135.263 30.3596 134.945 30.6254 134.62 30.8609C133.257 31.8497 131.979 32.8829 130.815 34.0824C129.19 35.7418 127.564 37.4011 125.938 39.0605C125.844 39.1463 125.714 39.2405 125.663 39.3486C124.952 40.54 123.855 41.5317 123.187 42.7453C122.977 43.147 122.644 43.5127 122.347 43.8701C121.935 44.3826 121.573 44.9478 121.246 45.5047C120.702 46.4329 120.073 47.3167 119.622 48.3198C119.345 48.9293 118.911 49.5111 118.635 50.1207C118.119 51.1708 117.646 52.2431 117.245 53.2988C116.954 54.0082 116.821 54.7453 116.573 55.4768C116.419 55.9618 116.223 56.4245 116.069 56.9094C115.975 57.156 115.916 57.3943 115.857 57.6326C115.555 59.1152 115.246 60.5673 115.101 62.0776C115.086 62.3381 115.041 62.6374 114.953 62.9145C114.807 63.4299 114.739 63.9592 114.823 64.4858C114.83 64.5163 114.837 64.5468 114.844 64.5772C114.695 65.5749 114.769 66.5531 114.728 67.5258C114.734 67.717 114.697 67.8861 114.625 68.0634C114.581 68.202 114.458 68.3266 114.371 68.443C113.759 68.5841 113.227 68.7391 112.644 68.8414C112.205 68.9105 111.795 68.9408 111.356 69.0099C110.73 69.09 110.069 69.1784 109.45 69.2891C108.428 69.4605 107.385 69.7012 106.356 69.8421C105.694 69.9305 105.096 70.2933 104.37 70.268C103.687 70.265 103.01 70.4532 102.355 70.5721C101.665 70.6993 101.01 70.8182 100.326 70.9759C99.7505 71.1086 99.2178 71.2637 98.649 71.427C98.3611 71.4933 98.0733 71.5597 97.8214 71.6178C96.7348 71.8363 95.6122 72.0631 94.5186 72.2511C93.7919 72.3866 93.0362 72.5608 92.3305 72.7878C91.0992 73.2002 89.8467 73.5213 88.6084 73.9032C87.7228 74.1716 86.8443 74.4706 85.9298 74.7778C85.3524 75.2321 84.5467 75.3537 83.9122 75.7249C83.7753 75.7885 83.6454 75.8827 83.5374 75.9076C82.6088 76.1539 81.6442 76.4085 80.7157 76.6547C80.4998 76.7045 80.2839 76.7543 80.075 76.8345C79.1026 77.2194 78.1732 77.6264 77.2078 78.0417C76.826 78.194 76.4802 78.338 76.0984 78.4902C75.6517 78.6896 75.155 78.8362 74.7153 79.0661C73.9368 79.4703 73.1303 79.7527 72.3307 80.0656C71.6032 80.3618 70.8256 80.6054 70.2693 81.1511C70.1104 81.2841 69.9016 81.3644 69.6997 81.4751C68.8783 81.8572 68.0928 82.231 67.2713 82.6131C67.0984 82.6851 66.9255 82.7571 66.7957 82.8513C66.2182 83.3056 65.5416 83.4937 64.8789 83.7428C64.2163 83.992 63.5608 84.2717 62.9263 84.6428C62.2628 85.0527 61.5924 85.4321 60.8648 85.7283C60.0363 86.0799 59.272 86.5452 58.5005 86.98C57.5273 87.5256 56.6401 88.1155 55.6598 88.6306C52.9998 90.0789 50.547 91.7684 48.0012 93.383C47.2079 93.8871 46.3715 94.369 45.6353 94.9562C44.4875 95.8952 43.2114 96.607 42.0566 97.5155C40.5262 98.7675 39.0388 100.042 37.4724 101.302C36.2886 102.249 35.277 103.285 34.1362 104.255C33.9774 104.388 33.8185 104.521 33.7027 104.676C33.1596 105.443 32.3874 106.039 31.6652 106.687C31.1668 107.155 30.6684 107.623 30.177 108.122C29.9603 108.333 29.7435 108.543 29.4908 108.762C29.1152 109.105 28.6967 109.427 28.4572 109.867C28.4063 109.975 28.3194 110.092 28.1896 110.186C27.2945 110.906 26.6285 111.798 25.8766 112.646C25.4861 113.089 25.1457 113.585 24.6333 113.992C24.4095 114.172 24.2428 114.436 24.0331 114.677C23.382 115.469 22.738 116.292 22.18 117.159C22.0423 117.383 21.8615 117.586 21.6808 117.788C21.0877 118.503 20.5446 119.27 19.9585 120.015C19.1697 121.032 18.438 122.132 17.7783 123.215C17.2782 124.005 16.7422 124.803 16.2061 125.601C15.699 126.36 15.2639 127.102 14.7998 127.884C14.6911 128.069 14.5892 128.286 14.4875 128.502C14.3498 128.726 14.2551 128.973 14.0743 129.175C13.4084 130.067 12.7784 130.951 12.4426 131.959C12.3917 132.067 12.3049 132.184 12.254 132.292C11.6741 133.228 11.0582 134.173 10.4853 135.14C10.0572 135.913 9.62914 136.686 9.24405 137.481C8.52477 138.964 7.76246 140.424 7.08619 141.928C6.40992 143.433 5.85563 144.974 5.25133 146.462C5.09084 146.916 4.88736 147.348 4.69089 147.811C4.5304 148.265 4.36996 148.72 4.20947 149.174C4.07091 149.56 3.97532 149.967 3.79374 150.33C3.29905 151.471 3.03435 152.624 2.69063 153.763C2.53717 154.248 2.4197 154.725 2.26625 155.21C2.11983 155.725 1.97341 156.24 1.87 156.778C1.69918 157.845 1.41338 158.906 1.13459 159.998C0.775154 161.397 0.609673 162.816 0.48724 164.257C0.456631 164.617 0.433065 165.008 0.402457 165.368C0.280849 166.649 0.0802523 167.915 0.102586 169.162C0.118716 170.218 -0.124071 171.302 0.0860471 172.377C0.197723 173.026 0.208477 173.73 0.133198 174.389C0.101761 174.91 0.221263 175.428 0.225811 175.941C0.217536 177.548 0.612145 179.095 0.790826 180.691C1.0514 183.136 1.37692 185.533 1.81742 187.936C1.87987 188.371 1.86332 188.792 1.92577 189.228C2.03662 190.037 2.1905 190.868 2.37332 191.661C2.47176 192.088 2.59912 192.476 2.5896 192.927C2.58795 193.249 2.66534 193.584 2.74269 193.92C2.8341 194.316 2.95444 194.674 3.04585 195.07C3.3449 197.024 3.72291 198.992 4.12991 200.921C4.28378 201.752 4.55267 202.589 4.74252 203.412C5.08706 204.906 5.60448 206.328 6.09296 207.789C6.59551 209.31 7.17704 210.846 7.71557 212.359C8.26816 213.934 8.95067 215.414 9.64018 216.925C10.1663 218.055 10.6995 219.217 11.2616 220.339C11.3468 220.545 11.432 220.75 11.5461 220.916C12.3891 221.942 12.7853 223.167 13.3904 224.312C13.6609 224.827 14.0035 225.326 14.3029 225.803C14.4171 225.969 14.5602 226.097 14.6313 226.241C14.8791 226.987 15.3646 227.613 15.7783 228.256C16.2419 228.952 16.6047 229.703 17.0973 230.36C17.7612 231.267 18.461 232.165 19.1248 233.071C19.4102 233.487 19.6596 233.911 19.938 234.297C20.9232 235.611 21.9516 236.947 22.9728 238.253C23.2441 238.607 23.5444 238.923 23.8447 239.24C24.8527 240.324 25.8606 241.408 26.8756 242.522C27.6834 243.395 28.5132 244.199 29.386 245.026C30.2517 245.821 31.0235 246.703 31.8602 247.537C32.6399 248.289 33.4485 249.001 34.2642 249.744C34.8366 250.254 35.3801 250.803 35.9525 251.314C36.8902 252.093 37.835 252.902 38.7726 253.681C39.281 254.078 39.7533 254.483 40.1897 254.896C40.1661 255.287 39.8774 255.514 39.6317 255.763C38.9815 256.395 38.3602 256.987 37.9321 257.761C37.7944 257.985 37.5706 258.165 37.3469 258.345C36.1631 259.292 35.2014 260.381 34.3258 261.514C33.8266 262.143 33.2843 262.75 32.656 263.312C31.9988 263.913 31.4776 264.611 30.9134 265.287C30.6168 265.645 30.3273 266.033 30.0307 266.39C29.9079 266.515 29.7851 266.639 29.6552 266.734C29.1646 267.071 28.8821 267.49 28.6137 267.969C28.2873 268.526 27.882 269.069 27.4696 269.582C26.6879 270.629 26.0281 271.712 25.3754 272.826C25.1 273.275 25.0904 273.727 25.2319 274.176C25.3382 274.472 25.5314 274.652 25.9334 274.752C26.8111 274.614 27.7529 274.589 28.7104 274.304C29.7039 274.011 30.6888 274.009 31.6947 274.098C32.0827 274.137 32.4636 274.145 32.8665 274.084C33.1974 274.04 33.4993 274.035 33.8083 274.06C34.7423 274.166 35.706 274.072 36.7198 274.031C37.6422 273.593 38.7209 273.505 39.7425 273.333C40.6562 273.187 41.584 273.101 42.5117 273.016C43.2885 272.933 44.0793 272.911 44.8561 272.828C46.1148 272.699 47.3577 272.829 48.6014 272.799C49.6222 272.789 50.6501 272.808 51.7077 272.629C52.4344 272.493 53.2183 272.441 53.9591 272.366C54.3979 272.297 54.7938 272.206 55.2115 272.045C55.6293 271.885 56.1112 271.838 56.579 271.73C56.9818 271.669 57.3557 271.647 57.7656 271.617C58.8803 271.52 59.995 271.424 61.0738 271.336C61.7786 271.269 62.4975 271.264 63.2163 271.259C64.0142 271.267 64.7682 271.415 65.4424 271.709C65.5285 271.753 65.6434 271.759 65.7655 271.795C65.9024 271.731 66.0103 271.706 66.1402 271.612C66.3061 271.509 66.4579 271.346 66.6167 271.213C67.6416 270.399 68.5595 269.449 69.6775 268.709C70.0742 268.457 70.4497 268.114 70.6962 267.704C70.8629 267.44 71.1946 267.235 71.5123 266.969C71.6587 266.454 71.7911 265.878 71.9524 265.262C71.394 264.813 70.6338 264.475 70.3852 263.89C70.4377 263.46 70.4753 263.131 70.47 262.779C70.5188 261.676 70.2657 260.578 70.1275 259.486C70.0791 259.112 70.0017 258.777 69.8094 258.436C69.6953 258.269 69.682 258.048 69.6328 257.834C69.5141 257.155 69.3884 256.446 69.2697 255.767C69.2064 255.492 69.1071 255.226 69.1588 254.957C69.2122 254.367 68.9847 253.874 68.7932 253.372C68.7651 253.25 68.665 253.145 68.6368 253.023C68.5111 252.313 68.1405 251.692 67.8489 251.085C67.4361 250.282 67.0953 249.461 66.6535 248.696C66.1907 247.839 65.6559 247 65.1211 246.16C64.8146 245.652 64.4792 245.184 64.1367 244.685C63.8372 244.208 63.4728 243.778 63.0075 243.404C62.852 242.894 62.6025 242.47 62.1442 242.126C61.6789 241.752 61.3005 241.261 61.066 240.737C60.6962 239.956 60.0886 239.293 59.3581 238.755C59.0859 238.561 58.8138 238.367 58.5487 238.203C58.0887 238.181 57.728 238.425 57.3603 238.638C56.6898 239.017 55.9834 239.405 55.3559 239.807C54.1949 240.524 53.098 241.355 52.2732 242.38C51.4484 243.405 50.4446 244.311 49.5197 245.23C49.0863 245.652 48.5738 246.059 48.3124 246.569C48.2545 246.646 48.1966 246.724 48.1027 246.81C47.5902 247.217 47.2427 247.682 46.8593 248.156C46.5917 248.475 46.31 248.732 45.9212 248.854C45.6842 248.812 45.5481 248.715 45.513 248.563C45.4356 248.227 45.1565 248.003 44.8773 247.778C44.5191 247.54 44.1968 247.293 43.7816 246.971C43.5375 246.899 43.2075 246.783 42.8054 246.683C42.4191 246.322 42.0188 245.901 41.5894 245.518C41.2101 245.188 40.8238 244.828 40.4156 244.537C39.506 243.88 38.7913 243.081 38.0116 242.33C37.5752 241.917 37.2327 241.418 36.7314 241.052C36.051 240.566 35.5725 239.97 34.957 239.438C34.5277 239.055 34.0984 238.673 33.7989 238.196C33.7919 238.166 33.7488 238.143 33.7418 238.113C32.9613 237.522 32.4045 236.752 31.7249 236.106C31.4317 235.82 31.1385 235.534 30.8382 235.218C30.4808 234.819 30.1883 234.373 30.2487 233.813C29.9265 233.566 29.6693 233.272 29.3541 233.056C28.9959 232.818 28.7316 232.493 28.6402 232.097C28.5699 231.792 28.3916 231.512 28.1554 231.31C27.4899 230.725 27.0263 230.029 26.5336 229.372C26.4265 229.236 26.3624 229.122 26.2263 229.025C25.646 228.645 25.3395 228.138 25.062 227.592C24.8696 227.251 24.6413 226.919 24.3121 226.641C23.8108 226.275 23.5332 225.729 23.3636 225.158C23.18 224.526 22.7945 224.005 22.445 223.476C22.2808 223.257 22.1525 223.029 22.0173 222.772C21.7116 222.103 21.2761 221.53 20.6966 220.989C20.1172 220.448 19.6315 219.822 19.4558 219.06C19.3222 218.48 19.1096 217.887 18.868 217.333C18.6405 216.84 18.3192 216.432 17.76 216.144C17.4762 215.406 17.1784 214.608 16.8587 213.879C16.7023 213.53 16.467 213.167 16.2747 212.826C15.8681 212.213 15.5765 211.606 15.4147 210.905C15.239 210.143 15.0561 209.35 14.4266 208.757C14.2334 208.576 14.0911 208.288 14.0709 208.036C13.989 207.188 13.5903 206.445 13.2705 205.716C13.1001 205.306 12.8867 204.873 12.6803 204.471C12.6092 204.327 12.538 204.183 12.5099 204.061C12.2981 203.307 12.1153 202.515 11.9035 201.761C11.7409 201.22 11.5855 200.71 11.3939 200.209C11.1813 199.615 11.0697 198.967 10.9291 198.357C10.6548 197.168 10.2367 196.012 10.0344 194.807C9.99924 194.654 9.96406 194.502 9.9289 194.349C9.73119 193.656 9.52646 192.933 9.54466 192.19C9.56121 191.769 9.42678 191.351 9.36432 190.916C9.25182 190.428 9.02435 189.934 9.09177 189.405C9.11369 189.336 9.06365 189.283 9.04958 189.222C8.52429 187.93 8.53878 186.514 8.1934 185.181C8.13715 184.937 8.11687 184.685 8.13962 184.455C8.13425 184.103 8.13586 183.782 7.98654 183.463C7.9154 183.319 7.91623 183.158 7.88107 183.006C7.79297 181.966 7.74087 180.919 7.5808 179.896C7.49725 179.369 7.26274 178.845 7.05014 178.252C7.09026 177.44 7.10227 176.506 6.86237 175.631C6.7569 175.173 6.78835 174.652 6.82681 174.162C6.85039 173.771 6.80898 173.427 6.65264 173.078C6.56743 172.873 6.5182 172.66 6.512 172.468C6.51241 170.991 6.51287 169.514 6.36934 168.07C6.36314 167.879 6.39992 167.71 6.4297 167.51C6.50581 166.69 6.61796 165.862 6.50008 165.022C6.45168 164.648 6.48225 164.287 6.51285 163.927C6.60302 163.168 6.68616 162.378 6.62536 161.621C6.61998 161.269 6.67954 160.87 6.71014 160.51C6.80114 159.59 6.89214 158.67 7.01913 157.742C7.10847 157.143 7.28388 156.589 7.40921 155.982C7.4758 155.614 7.58542 155.267 7.65201 154.899C7.89729 153.333 8.29354 151.764 8.81181 150.232C9.30815 148.769 9.79748 147.276 10.2868 145.782C10.8998 144.003 11.5988 142.268 12.4057 140.509C12.8495 139.475 13.3724 138.456 13.8233 137.453C14.4048 136.195 15.0653 134.951 15.7259 133.707C15.9943 133.227 16.2628 132.748 16.5672 132.26C17.8288 130.171 19.0543 128.091 20.3158 126.002C21.3019 124.361 22.331 122.743 23.3671 121.156C23.7295 120.59 24.1778 120.07 24.5472 119.535C26.2352 116.994 28.1312 114.534 30.1774 112.232C31.92 110.257 33.6986 108.273 35.6273 106.448C36.5302 105.597 37.4332 104.747 38.3431 103.927C39.1882 103.154 39.9972 102.389 40.8852 101.639C41.9032 100.794 42.9211 99.949 43.946 99.1347C45.4764 97.8826 47.1069 96.736 48.7804 95.6115C50.9155 94.1879 53.0436 92.7338 55.343 91.5293C56.8998 90.7206 58.3996 89.8288 59.9135 88.998C62.2347 87.7242 64.5989 86.4725 67.0914 85.4481C67.4012 85.3125 67.668 85.1547 67.9418 85.0273C68.1147 84.9553 68.2376 84.8306 68.4175 84.7891C70.1026 84.2078 71.6235 83.4075 73.2515 82.743C75.3622 81.8709 77.5159 81.021 79.6837 80.232C80.5552 79.9026 81.4408 79.6341 82.3193 79.3352C82.7441 79.2051 83.1188 79.0224 83.5436 78.8923C83.9613 78.7317 84.3502 78.6099 84.7749 78.4799C84.9549 78.4384 85.1348 78.3968 85.3077 78.3249C86.2011 77.9262 87.1226 77.6494 88.0583 77.4336C88.634 77.3009 89.1667 77.1459 89.7425 77.0131C90.1383 76.9218 90.4912 76.8083 90.887 76.717C91.2469 76.634 91.5926 76.49 91.9235 76.4459C93.0602 76.28 94.1546 75.9313 95.235 75.5216C95.5519 75.4164 95.8327 75.3195 96.1565 75.2448C97.2431 75.0263 98.3156 74.7469 99.36 74.3454C99.6698 74.2098 100.073 74.1489 100.418 74.1657C100.835 74.1659 101.28 74.1273 101.712 74.0277C102.907 73.7843 104.094 73.5104 105.296 73.2975C106.354 73.1178 107.425 72.999 108.518 72.9717C109.086 72.9692 109.669 72.867 110.216 72.773C111.381 72.5684 112.54 72.3332 113.741 72.1203C114.18 72.0512 114.583 71.9904 115.035 72.1431C115.378 72.4813 115.412 72.9552 115.366 73.4152C115.299 73.9445 115.562 74.4296 115.531 74.9506C115.537 75.1418 115.694 75.3303 115.78 75.5354C116.029 75.9595 116.242 76.3919 116.211 76.9129C116.194 77.3342 116.423 77.6669 116.651 77.9995C117.008 78.5595 117.184 79.1609 117.195 79.8648C117.702 80.4221 118.001 81.0596 118.134 81.7996C118.253 82.3179 118.452 82.8501 118.787 83.3186C119.002 83.5903 119.115 83.9172 119.156 84.2609C119.212 84.6655 119.332 85.0232 119.596 85.3475C119.918 85.755 120.095 86.1957 120.244 86.6752C120.3 86.9191 120.392 87.1548 120.513 87.3516C120.692 87.6316 121.043 87.8395 121.156 88.1666C121.305 88.4853 121.412 88.7819 121.626 89.0536C121.868 89.4472 122.01 89.8962 122.252 90.2898C122.552 90.7666 122.815 91.2518 122.906 91.8088C123.178 92.0029 123.414 92.2054 123.729 92.4216C124.049 93.1506 124.405 93.8713 124.767 94.6225C124.846 94.7971 124.953 94.9329 125.096 95.0605C125.625 95.5484 125.982 96.1084 126.137 96.7791C126.249 97.2669 126.599 97.6356 126.921 98.0431C127.142 98.3453 127.363 98.6475 127.621 98.9414C127.778 99.1299 127.942 99.3488 128.157 99.4598C128.508 99.6678 128.73 99.97 128.98 100.233C129.194 100.505 129.444 100.768 129.659 101.04C129.937 101.425 130.208 101.78 130.601 102.332C130.694 102.407 130.966 102.601 131.145 102.72C131.351 103.122 131.537 103.432 131.729 103.773C132.481 104.242 132.837 104.963 133.402 105.603C133.617 105.714 133.868 105.817 134.076 105.897C134.447 106.357 134.819 106.818 135.233 107.3C135.218 107.561 135.389 107.81 135.632 108.043C136.118 108.509 136.605 108.974 137.055 109.449C137.449 109.839 137.929 110.114 138.496 110.272C138.78 110.849 139.188 111.301 139.638 111.775C140.232 112.376 140.861 112.97 141.491 113.563C141.977 114.029 142.616 114.331 143.384 114.539C143.505 114.736 143.662 114.925 143.747 115.13C143.911 115.509 144.168 115.803 144.562 116.033C144.87 116.219 145.214 116.397 145.522 116.583C146.268 117.021 147.013 117.459 147.441 118.163C147.555 118.329 147.777 118.471 147.956 118.59C148.501 118.978 149.038 119.336 149.546 119.732C150.47 120.451 151.458 121.122 152.614 121.53C152.7 121.574 152.822 121.61 152.872 121.663C153.437 122.142 154.212 122.381 154.843 122.814C155.065 122.955 155.287 123.096 155.567 123.16C156.055 123.305 156.413 123.543 156.843 123.765C157.23 123.965 157.618 124.164 158.056 124.256C158.544 124.4 159.039 124.575 159.476 124.827C160.4 125.385 161.484 125.649 162.533 125.921C162.698 125.979 162.885 125.968 163.021 126.065C163.659 126.367 164.334 126.501 165.039 126.434C165.226 126.423 165.391 126.482 165.549 126.509C166.597 126.781 167.609 127.062 168.606 127.442C169.567 127.83 170.667 127.833 171.746 127.745C172.228 127.698 172.739 127.612 173.242 127.496C173.71 127.388 174.156 127.35 174.63 127.433C175.348 127.589 176.089 127.514 176.859 127.401C177.952 127.213 179.068 126.955 180.069 126.532C181.042 126.147 181.957 125.679 182.865 125.181C184.199 124.391 185.526 123.571 186.91 122.835C187.415 122.558 187.826 122.206 188.188 121.802C189.221 120.696 189.875 119.422 190.507 118.217C190.596 117.618 190.275 117.21 189.96 116.833C190.03 115.822 190.314 115.082 191.009 114.151C191.258 113.259 191.32 112.378 191.303 111.482C191.291 111.1 191.271 110.687 191.18 110.291C191.103 109.955 191.068 109.642 191.214 109.288C191.381 108.864 191.326 108.459 191.156 108.049C190.779 107.237 190.582 106.383 190.824 105.46C190.985 104.845 191.074 104.246 191.028 103.551C190.892 103.293 190.75 103.005 190.608 102.716C190.603 102.204 190.606 101.722 190.795 101.228C190.919 100.943 190.899 100.691 190.835 100.416C190.716 99.8981 190.675 99.3937 190.412 98.9087C190.355 98.8255 190.298 98.7423 190.313 98.6426C190.339 97.7696 189.731 97.107 189.44 96.3392C189.433 96.3088 189.426 96.2783 189.419 96.2478C188.962 95.7432 188.85 95.0947 188.745 94.4766C188.731 94.4156 188.681 94.363 188.553 94.1357C188.51 94.1135 188.252 93.9803 187.951 93.825C187.958 93.8555 187.944 93.7945 187.937 93.7641C187.873 93.4897 187.817 93.2457 187.718 92.9796C187.612 92.6831 187.404 92.4419 187.334 92.137C187.215 91.6187 186.9 91.2417 186.369 91.0752C186.198 90.8257 186.07 90.5984 185.934 90.3406C185.943 90.0496 185.959 89.7891 185.961 89.4677C185.81 89.3096 185.653 89.1211 185.46 88.9409C185.231 88.769 184.995 88.5666 184.773 88.4251C184.285 88.1201 183.899 87.7597 183.837 87.1638C182.39 86.3097 181.656 84.9376 180.871 83.8343C179.933 83.2159 179.137 82.725 178.364 82.1649C178.142 82.0234 177.978 81.8045 177.856 81.6076C177.6 81.153 177.221 80.8231 176.719 80.6178C176.173 80.3903 175.751 80.0382 175.488 79.5531C175.217 79.0376 174.73 78.7325 174.062 78.6297C173.473 78.5407 172.957 78.2745 172.477 77.9999C172.211 77.8363 171.982 77.6645 171.847 77.4067C171.526 76.8384 170.996 76.5111 170.358 76.2088C169.555 75.8482 168.758 75.5181 168.071 75.0023C167.749 74.7556 167.376 74.6169 166.952 74.5862C166.262 74.5527 165.688 74.364 165.172 73.9371C164.607 73.4574 163.796 73.227 163.064 73.0106C162.16 72.7053 161.226 72.4389 160.373 72.0256C159.685 71.6706 158.997 71.3156 158.156 71.2847C157.847 71.2597 157.553 71.1349 157.266 71.0405C156.534 70.8241 155.808 70.6381 155.127 70.3136C154.489 70.0113 153.814 69.8779 153.16 69.8361C152.286 69.3314 151.266 69.1813 150.282 69.0229C149.456 68.8924 148.652 68.6925 147.782 68.7005C147.595 68.7115 147.351 68.6393 147.186 68.581C146.461 68.2343 145.628 68.234 144.816 68.1644C144.622 68.1449 144.471 68.1476 144.284 68.1586C142.752 68.255 141.236 68.0909 139.742 67.8575C139.584 67.8297 139.39 67.8102 139.225 67.752C138.637 67.5023 138.026 67.4827 137.394 67.3716C136.058 67.1659 134.699 67.3511 133.347 67.4059C132.75 67.4473 132.139 67.4276 131.535 67.4385C131.01 67.4632 130.449 67.4962 129.918 67.4904C129.616 67.4959 129.278 67.5096 128.969 67.4845C127.683 67.3316 126.395 67.5001 125.108 67.5079C124.353 67.5215 123.627 67.657 122.85 67.7398C122.672 67.4598 122.485 67.4708 122.291 67.4513ZM123.011 71.3952C123.285 71.1071 123.53 71.0186 123.796 71.0214C124.335 71.0577 124.845 71.1327 125.384 71.169C125.887 71.2135 126.397 71.2885 126.872 71.2111C128.002 71.0148 129.094 70.9876 130.187 70.9603C130.87 70.9633 131.539 70.9054 132.222 70.9085C132.941 70.9032 133.631 70.9367 134.363 70.9925C135.333 71.0899 136.354 71.0792 137.28 71.3151C137.725 71.4372 138.25 71.4125 138.753 71.457C139.026 71.4904 139.35 71.4157 139.594 71.4879C140.276 71.6517 140.966 71.6852 141.67 71.7797C142.41 71.8659 143.121 71.9909 143.868 72.1076C144.055 72.0966 144.2 71.9026 144.35 72.0606C144.486 72.1577 144.622 72.2548 144.78 72.2826C145.649 72.4354 146.489 72.6269 147.351 72.7491C148.407 72.8909 149.405 73.1103 150.395 73.4599C150.682 73.5542 150.97 73.6486 151.293 73.7347C152.097 73.9345 152.901 74.1343 153.712 74.3647C155.585 74.928 157.357 75.7075 159.179 76.3789C159.846 76.6424 160.455 76.9836 161.094 77.2859C161.811 77.6022 162.55 77.849 163.015 78.3841C163.661 78.5562 164.228 78.7144 164.759 78.8809C165.491 79.0973 166.107 79.4689 166.601 79.9652C166.794 80.1454 167.009 80.2563 167.231 80.3978C167.675 80.6806 168.119 80.9635 168.564 81.2464C168.872 81.4322 169.151 81.6568 169.459 81.8426C170.082 82.2447 170.742 82.6385 171.372 83.071C172.239 83.706 173.076 84.3798 173.907 85.0231C174.093 85.1728 174.279 85.3225 174.393 85.4889C174.757 86.0793 175.344 86.4897 175.903 86.9389C176.132 87.1108 176.368 87.3132 176.532 87.5322C177.468 88.6328 178.534 89.6393 179.376 90.8257C180.425 92.2534 181.612 93.6173 182.459 95.1558C182.915 95.9818 183.479 96.783 183.697 97.7281C183.816 98.2464 184.152 98.7149 184.451 99.1917C184.515 99.3053 184.723 99.3857 184.773 99.4384C184.751 99.6684 184.649 99.8846 184.698 100.098C184.754 100.503 184.91 100.852 185.001 101.248C185.051 101.462 185.172 101.658 185.142 101.858C185.102 102.67 185.278 103.432 185.424 104.233C185.529 104.851 185.591 105.447 185.58 106.06C185.541 106.711 185.61 107.337 185.606 107.98C185.63 108.906 185.654 109.831 185.635 110.735C185.625 111.347 185.543 111.976 185.496 112.597C185.371 114.681 185.334 114.85 184.696 117.18C184.594 117.557 184.541 117.987 184.554 118.369C184.559 118.721 184.521 119.051 184.369 119.375C184.158 119.777 184.034 120.223 183.823 120.625C183.097 122.077 183.097 122.077 181.755 122.996C181.69 123.043 181.618 123.06 181.51 123.085C180.929 122.866 180.217 122.901 179.577 123.081C179.289 123.148 179.023 123.145 178.721 123.15C177.772 123.144 176.824 122.978 175.846 123.011C175.17 123.038 174.494 123.065 173.943 122.647C173.9 122.625 173.821 122.611 173.742 122.597C173.017 122.411 172.263 122.264 171.531 122.047C171.129 121.947 170.72 121.817 170.376 121.639C169.687 121.284 168.955 121.068 168.107 121.007C167.568 120.97 167.08 120.826 166.599 120.712C166.356 120.479 166.156 120.269 165.963 120.088C165.475 119.944 165.03 119.822 164.657 119.522C164.564 119.448 164.435 119.381 164.277 119.353C163.803 119.27 163.445 119.031 163.094 118.823C162.442 118.46 161.861 118.08 161.18 117.756C160.585 117.476 160.012 117.126 159.532 116.691C159.339 116.511 159.088 116.408 158.866 116.267C158.157 115.82 157.346 115.429 156.724 114.866C156.387 114.558 155.979 114.267 155.484 114.092C155.24 114.02 155.011 113.848 154.818 113.668C153.708 112.8 152.562 111.941 151.265 111.245C151.222 111.222 151.136 111.178 151.086 111.125C150.893 110.784 150.513 110.615 150.227 110.36C149.898 110.083 149.576 109.836 149.311 109.512C149.04 109.157 148.74 108.841 148.338 108.58C147.715 108.178 147.258 107.674 146.8 107.169C146.142 106.454 145.319 105.841 144.791 105.031C144.684 104.896 144.505 104.776 144.362 104.649C143.345 103.856 142.415 102.946 141.658 101.965C141.344 101.588 141.008 101.28 140.636 100.981C140.127 100.584 139.684 100.141 139.37 99.6029C139.185 99.2925 138.928 98.9986 138.641 98.7435C138.305 98.4357 138.041 98.1115 137.835 97.7095C137.642 97.3686 137.378 97.0442 137.114 96.7198C136.763 96.3511 136.384 96.0211 135.998 95.6607C135.647 95.292 135.297 94.9233 135.113 94.452C135.034 94.2774 135.071 94.1085 135.029 93.9255C134.843 93.7758 134.664 93.6565 134.478 93.5068C134.378 93.2407 134.279 92.9746 134.258 92.8832C133.214 91.8075 132.277 90.8676 131.982 89.5871C131.775 89.3459 131.545 89.174 131.381 88.955C131.153 88.6224 130.99 88.2426 130.761 87.9099C130.526 87.5468 130.19 87.2391 129.99 86.8677C129.727 86.3826 129.564 85.842 129.337 85.3486C129.18 84.9994 129.017 84.6197 128.753 84.2953C127.924 83.3306 127.571 82.1276 126.915 81.0909C126.44 79.6912 125.757 78.3718 125.498 76.9223C125.463 76.7698 125.392 76.6257 125.321 76.4816C124.604 76.1654 124.326 75.6193 124.315 74.9154C124.323 74.7851 124.259 74.6715 124.267 74.5412C124.176 74.1449 124.055 73.7873 123.791 73.4629C123.412 72.9722 123.308 72.3542 123.131 71.7528C122.922 71.833 123.017 71.5865 123.011 71.3952ZM42.6189 256.391C42.834 256.502 43.092 256.635 43.3071 256.746C44.0024 257.131 44.7267 257.478 45.3931 257.902C45.8803 258.207 46.4035 258.504 46.7749 258.964C47.0533 259.349 47.4545 259.61 47.9567 259.815C48.2867 259.932 48.6019 260.148 48.946 260.326C50.2795 261.014 51.4033 261.942 52.7658 262.591C52.8948 262.658 52.9879 262.733 53.081 262.808C53.4392 263.046 53.7684 263.323 54.1555 263.523C54.9368 263.953 55.7182 264.383 56.3767 264.937C56.6128 265.14 56.914 265.295 57.1432 265.467C57.0836 265.866 56.7308 265.98 56.4499 266.077C55.8092 266.256 55.1255 266.414 54.4707 266.533C53.4131 266.713 52.3352 266.64 51.2557 266.889C51.1477 266.914 51.0327 266.908 50.9537 266.895C50.0909 266.933 49.25 266.902 48.4013 267.002C47.5885 267.093 46.7406 267.031 46.042 267.289C45.539 267.244 45.144 267.175 44.7271 267.175C43.5483 267.158 42.4063 266.972 41.2196 267.085C41.1836 267.093 41.1406 267.071 41.1046 267.079C40.1707 266.973 39.2648 266.99 38.337 267.075C37.0424 267.213 35.7557 267.221 34.4962 267.511C34.1003 267.603 33.7264 267.625 33.3165 267.655C33.0936 267.674 32.8856 267.594 32.8363 267.381C32.7731 267.106 32.9898 266.896 33.1705 266.693C34.2918 265.311 35.4132 263.928 36.5775 262.568C36.932 262.133 37.4155 261.765 37.684 261.286C37.7419 261.208 37.8428 261.153 37.9007 261.075C38.7176 260.18 39.5775 259.308 40.3874 258.382C40.9875 257.698 41.7668 257.133 42.4601 256.524C42.403 256.44 42.475 256.424 42.6189 256.391ZM48.1196 250.498C48.3513 250.188 48.489 249.963 48.6337 249.77C49.2409 249.116 49.8481 248.462 50.4264 247.847C50.8818 247.357 51.3372 246.866 51.8286 246.368C52.1322 246.041 52.4787 245.736 52.8535 245.553C53.5442 245.426 53.9235 245.756 54.137 246.188C54.6209 247.136 55.3646 247.896 55.9495 248.789C56.4843 249.629 57.2499 250.319 57.6188 251.261C58.554 252.523 59.2803 253.864 59.9777 255.245C60.3123 255.874 60.5749 256.52 60.8736 257.157C60.9658 257.393 61.1081 257.681 60.8405 258C60.4376 258.061 60.0207 258.06 59.6695 257.852C59.1393 257.525 58.573 257.206 58.0428 256.879C57.8207 256.738 57.6345 256.588 57.3835 256.485C56.7953 256.236 56.2361 255.947 55.8287 255.495C55.7286 255.39 55.5565 255.301 55.4204 255.204C54.539 254.669 53.6646 254.164 52.7902 253.659C52.6541 253.562 52.5181 253.465 52.382 253.368C51.7657 252.997 51.1424 252.595 50.5261 252.223C50.1679 251.984 49.7807 251.785 49.4225 251.546C49.0002 251.194 48.6209 250.864 48.1196 250.498Z" fill="white"/>
</svg>
