<svg width="144" height="40" viewBox="0 0 144 40" fill="none" xmlns="http://www.w3.org/2000/svg">
<rect x="2" width="40" height="40" rx="20" fill="#9FCE00"/>
<g clip-path="url(#clip0_1_334)">
<path d="M28.5625 20C28.5625 20.8477 28.4167 21.6497 28.125 22.4062C27.8333 23.1628 27.43 23.8372 26.915 24.4297C26.4001 25.0221 25.7962 25.5189 25.1035 25.9199C24.4017 26.3118 23.6497 26.5716 22.8477 26.6992V21.9551H24.4199L24.7207 20H22.8477V18.7285C22.8477 18.4551 22.9251 18.209 23.0801 17.9902C23.235 17.7715 23.5221 17.6621 23.9414 17.6621H24.8027V15.9941C24.8027 15.9941 24.6432 15.9736 24.3242 15.9326C24.0052 15.8916 23.6589 15.8711 23.2852 15.8711C22.5104 15.8711 21.8883 16.0967 21.4189 16.5479C20.9495 16.999 20.7148 17.653 20.7148 18.5098V20H18.9922V21.9551H20.7148V26.6992C19.9128 26.5716 19.1608 26.3118 18.459 25.9199C17.7663 25.5189 17.1624 25.0221 16.6475 24.4297C16.1325 23.8372 15.7292 23.1628 15.4375 22.4062C15.1458 21.6497 15 20.8477 15 20C15 19.0612 15.1777 18.1816 15.5332 17.3613C15.8887 16.541 16.374 15.8232 16.9893 15.208C17.6045 14.5928 18.3223 14.1074 19.1426 13.752C19.9629 13.3965 20.8424 13.2188 21.7812 13.2188C22.7201 13.2188 23.5996 13.3965 24.4199 13.752C25.2402 14.1074 25.958 14.5928 26.5732 15.208C27.1885 15.8232 27.6738 16.541 28.0293 17.3613C28.3848 18.1816 28.5625 19.0612 28.5625 20Z" fill="#3E509D"/>
</g>
<rect x="52" width="40" height="40" rx="20" fill="#9FCE00"/>
<path d="M76.4539 13.1899H78.5624L73.9561 18.4546L79.375 25.6187H75.132L71.8088 21.2737L68.0062 25.6187H65.8965L70.8234 19.9875L65.625 13.1899H69.9757L72.9796 17.1614L76.4539 13.1899ZM75.7139 24.3567H76.8822L69.3409 14.3856H68.0872L75.7139 24.3567Z" fill="#3E509D"/>
<rect x="102" width="40" height="40" rx="20" fill="#9FCE00"/>
<path d="M121.125 16.8555C121.562 16.8555 121.973 16.9375 122.355 17.1016C122.738 17.2656 123.071 17.4889 123.354 17.7715C123.636 18.054 123.859 18.3867 124.023 18.7695C124.188 19.1523 124.27 19.5625 124.27 20C124.27 20.4284 124.188 20.834 124.023 21.2168C123.859 21.5996 123.636 21.9346 123.354 22.2217C123.071 22.5088 122.738 22.7344 122.355 22.8984C121.973 23.0625 121.562 23.1445 121.125 23.1445C120.697 23.1445 120.291 23.0625 119.908 22.8984C119.525 22.7344 119.19 22.5088 118.903 22.2217C118.616 21.9346 118.391 21.5996 118.227 21.2168C118.062 20.834 117.98 20.4284 117.98 20C117.98 19.5625 118.062 19.1523 118.227 18.7695C118.391 18.3867 118.616 18.054 118.903 17.7715C119.19 17.4889 119.525 17.2656 119.908 17.1016C120.291 16.9375 120.697 16.8555 121.125 16.8555ZM121.125 22.0371C121.69 22.0371 122.173 21.8389 122.574 21.4424C122.975 21.0459 123.176 20.5651 123.176 20C123.176 19.4349 122.975 18.9518 122.574 18.5508C122.173 18.1497 121.69 17.9492 121.125 17.9492C120.56 17.9492 120.079 18.1497 119.683 18.5508C119.286 18.9518 119.088 19.4349 119.088 20C119.088 20.5651 119.288 21.0459 119.689 21.4424C120.09 21.8389 120.569 22.0371 121.125 22.0371ZM125.131 16.7324C125.131 16.9329 125.06 17.1038 124.919 17.2451C124.778 17.3864 124.602 17.457 124.393 17.457C124.192 17.457 124.021 17.3864 123.88 17.2451C123.739 17.1038 123.668 16.9329 123.668 16.7324C123.668 16.5228 123.739 16.3473 123.88 16.2061C124.021 16.0648 124.192 15.9941 124.393 15.9941C124.602 15.9941 124.778 16.0648 124.919 16.2061C125.06 16.3473 125.131 16.5228 125.131 16.7324ZM127.209 17.4707C127.227 17.7259 127.241 18.0859 127.25 18.5508C127.25 19.0065 127.25 19.4873 127.25 19.9932C127.25 20.499 127.25 20.9844 127.25 21.4492C127.241 21.9141 127.227 22.2741 127.209 22.5293C127.191 23.0124 127.111 23.4704 126.97 23.9033C126.828 24.3363 126.58 24.7305 126.225 25.0859C125.869 25.4505 125.475 25.7012 125.042 25.8379C124.609 25.9746 124.146 26.0566 123.654 26.084C123.399 26.0931 123.039 26.1022 122.574 26.1113C122.118 26.1204 121.638 26.125 121.132 26.125C120.626 26.125 120.141 26.1204 119.676 26.1113C119.211 26.1022 118.851 26.0931 118.596 26.084C118.104 26.0566 117.643 25.9746 117.215 25.8379C116.786 25.7012 116.39 25.4505 116.025 25.0859C115.67 24.7305 115.424 24.3363 115.287 23.9033C115.15 23.4704 115.068 23.0124 115.041 22.5293C115.023 22.2741 115.014 21.9141 115.014 21.4492C115.005 20.9844 115 20.499 115 19.9932C115 19.4873 115.005 19.002 115.014 18.5371C115.014 18.0814 115.023 17.7259 115.041 17.4707C115.068 16.9785 115.15 16.516 115.287 16.083C115.424 15.6501 115.67 15.2559 116.025 14.9004C116.39 14.5449 116.789 14.2965 117.222 14.1553C117.655 14.014 118.113 13.9342 118.596 13.916C118.851 13.8978 119.211 13.8841 119.676 13.875C120.141 13.875 120.626 13.875 121.132 13.875C121.638 13.875 122.118 13.875 122.574 13.875C123.039 13.8841 123.399 13.8978 123.654 13.916C124.146 13.9434 124.609 14.0254 125.042 14.1621C125.475 14.2988 125.869 14.5449 126.225 14.9004C126.58 15.265 126.828 15.6615 126.97 16.0898C127.111 16.5182 127.191 16.9785 127.209 17.4707ZM125.91 23.6094C125.983 23.4089 126.038 23.1491 126.074 22.8301C126.111 22.5111 126.136 22.1784 126.149 21.832C126.163 21.4857 126.165 21.1484 126.156 20.8203C126.156 20.4922 126.156 20.2188 126.156 20C126.156 19.7721 126.156 19.4941 126.156 19.166C126.165 18.8379 126.163 18.5007 126.149 18.1543C126.136 17.8079 126.111 17.4798 126.074 17.1699C126.038 16.8509 125.983 16.5911 125.91 16.3906C125.801 16.1172 125.646 15.8802 125.445 15.6797C125.245 15.4792 125.008 15.3242 124.734 15.2148C124.534 15.1419 124.274 15.0872 123.955 15.0508C123.645 15.0143 123.317 14.9893 122.971 14.9756C122.624 14.9619 122.287 14.9596 121.959 14.9688C121.631 14.9688 121.353 14.9688 121.125 14.9688C120.906 14.9688 120.633 14.9688 120.305 14.9688C119.977 14.9596 119.639 14.9619 119.293 14.9756C118.947 14.9893 118.614 15.0143 118.295 15.0508C117.976 15.0872 117.716 15.1419 117.516 15.2148C117.242 15.3242 117.005 15.4792 116.805 15.6797C116.604 15.8802 116.454 16.1172 116.354 16.3906C116.271 16.5911 116.212 16.8509 116.176 17.1699C116.139 17.4798 116.117 17.8079 116.107 18.1543C116.098 18.5007 116.094 18.8379 116.094 19.166C116.103 19.4941 116.107 19.7721 116.107 20C116.107 20.2188 116.103 20.4922 116.094 20.8203C116.094 21.1484 116.098 21.4857 116.107 21.832C116.117 22.1784 116.139 22.5111 116.176 22.8301C116.212 23.1491 116.271 23.4089 116.354 23.6094C116.463 23.8828 116.618 24.1175 116.818 24.3135C117.019 24.5094 117.251 24.6621 117.516 24.7715C117.716 24.8535 117.976 24.9128 118.295 24.9492C118.614 24.9857 118.947 25.0085 119.293 25.0176C119.639 25.0267 119.977 25.0312 120.305 25.0312C120.633 25.0221 120.906 25.0176 121.125 25.0176C121.353 25.0176 121.631 25.0221 121.959 25.0312C122.287 25.0312 122.624 25.0267 122.971 25.0176C123.317 25.0085 123.645 24.9857 123.955 24.9492C124.274 24.9128 124.534 24.8535 124.734 24.7715C125.008 24.6621 125.245 24.5072 125.445 24.3066C125.646 24.1061 125.801 23.8737 125.91 23.6094Z" fill="#3E509D"/>
<defs>
<clipPath id="clip0_1_334">
<rect width="14" height="14" fill="white" transform="matrix(1 0 0 -1 15 27)"/>
</clipPath>
</defs>
</svg>
