<svg width="66" height="78" viewBox="0 0 66 78" fill="none" xmlns="http://www.w3.org/2000/svg">
<mask id="path-1-outside-1_1_453" maskUnits="userSpaceOnUse" x="-0.849976" y="-0.849976" width="67" height="79" fill="black">
<rect fill="white" x="-0.849976" y="-0.849976" width="67" height="79"/>
<path d="M2.88241 59.5956L3.79464 54.0267C4.25076 51.2345 6.16798 48.9011 8.80416 47.9367C10.9842 47.1356 13.0715 46.6222 13.6591 46.4822V51.4911H10.7137C9.96378 51.4911 9.35305 52.1056 9.35305 52.86V61.8434L3.1298 59.9845C2.96745 59.9378 2.85922 59.7667 2.89014 59.5956H2.88241ZM19.9055 39.9256C21.5985 40.6334 23.4539 41.03 25.4021 41.03C27.1183 41.03 28.7727 40.7267 30.3034 40.1667C30.5894 42.7878 32.2902 45.0122 34.6558 45.9845V51.4834H16.3803V45.5645C18.3671 44.4134 19.7277 42.3211 19.9055 39.9256ZM13.806 26.6256V23.8022H36.9132V28.0411C36.2097 33.89 31.2697 38.2845 25.4021 38.2845C19.0087 38.2845 13.806 33.05 13.806 26.6178V26.6256ZM9.8942 20.3567C9.73186 19.8045 10.389 18.63 11.2162 17.6345H39.3638C40.1601 18.6145 40.5389 19.4778 40.4152 20.0611C40.2992 20.5822 39.7658 20.9245 39.4875 21.0645H11.2625C10.4972 20.9011 9.97924 20.6289 9.8942 20.3489V20.3567ZM42.8736 48.5978C42.7499 49.9356 42.8736 51.3045 43.2292 52.6267L41.683 54.4934V52.8522C41.683 52.0978 41.0723 51.4834 40.3224 51.4834H37.377V46.6456C38.4748 46.9334 40.191 47.5011 42.0464 48.2167C42.3324 48.3256 42.6107 48.45 42.8813 48.5978H42.8736ZM47.5043 44.1722C48.834 42.57 50.6352 41.5511 52.6066 41.2322L49.8699 44.53C49.2282 45.3078 49.0427 46.3811 49.3906 47.33L50.813 51.2267C51.1609 52.1756 51.9881 52.8756 52.9777 53.0467L57.044 53.7545C58.0336 53.9256 59.0463 53.5522 59.6957 52.7745L62.4324 49.4767C62.471 51.4834 61.7907 53.4511 60.4687 55.0534C58.5361 57.3789 55.4901 58.4989 52.5215 57.9778C52.0422 57.8922 51.5552 58.0711 51.2382 58.4522L39.0391 73.1678C38.4438 73.8911 37.6012 74.3345 36.6658 74.4122C35.7381 74.4978 34.8259 74.21 34.1146 73.6034L33.9987 73.51C32.5298 72.2734 32.3366 70.0567 33.5657 68.5711L45.8035 53.8167C46.1127 53.4434 46.2055 52.9378 46.0432 52.4789C45.0459 49.6556 45.6025 46.4745 47.512 44.18L47.5043 44.1722ZM25.9355 66.72C25.8737 66.7434 25.8041 66.7434 25.7345 66.72L12.0665 62.6445C12.0665 62.6445 12.0665 62.6134 12.0665 62.6056V54.2211H13.6513V57.0756C13.6513 57.83 14.2621 58.4445 15.012 58.4445C15.7618 58.4445 16.3726 57.83 16.3726 57.0756V54.2211H34.648V57.0756C34.648 57.83 35.2588 58.4445 36.0087 58.4445C36.7585 58.4445 37.3693 57.83 37.3693 57.0756V54.2211H38.9541V57.4022C38.9541 57.5111 38.9695 57.62 38.9927 57.7289L33.5194 64.3323L25.9278 66.72H25.9355ZM2.34899 62.6056L24.9614 69.3489C25.2475 69.4345 25.5412 69.4734 25.835 69.4734C26.1442 69.4734 26.4535 69.4267 26.7472 69.3334L30.6435 68.1045C29.4453 70.6167 30.0328 73.7278 32.2515 75.5945L32.3675 75.6878C33.4962 76.6445 34.8954 77.15 36.3488 77.15C36.5344 77.15 36.7199 77.1423 36.9054 77.1267C38.5598 76.9789 40.0596 76.1934 41.1264 74.9023L52.8462 60.77C53.225 60.8089 53.5961 60.8245 53.9749 60.8245C57.2528 60.8245 60.4224 59.37 62.5638 56.7878C65.0608 53.7778 65.8184 49.6011 64.5351 45.8989C64.3728 45.4322 63.9785 45.09 63.4915 45.0045C63.0122 44.9189 62.5174 45.0978 62.2004 45.4711L57.6084 51.0089C57.6084 51.0089 57.5465 51.0478 57.5156 51.04L53.4492 50.3323C53.4492 50.3323 53.3874 50.3011 53.3719 50.27L51.9495 46.3734C51.9495 46.3734 51.9495 46.3034 51.9649 46.2722L56.557 40.7345C56.8739 40.3534 56.959 39.8322 56.7889 39.3734C56.6188 38.9145 56.2091 38.58 55.7221 38.5022C51.8644 37.8956 47.9217 39.3889 45.4247 42.3989C44.5666 43.4334 43.9172 44.5922 43.4843 45.8289C43.3297 45.7589 43.1828 45.6967 43.0282 45.6422C41.9845 45.2456 38.4593 43.9234 36.8281 43.7289C34.6403 43.4645 32.9937 41.5978 32.9937 39.3734V38.8367C36.5807 36.5811 39.1242 32.77 39.6344 28.2745C39.6344 28.22 39.6421 28.1734 39.6421 28.1189V23.7945H39.7813C39.9359 23.7945 40.0905 23.7711 40.2374 23.7167C40.477 23.6311 42.5798 22.83 43.0746 20.6834C43.4534 19.0656 42.7653 17.2767 41.0414 15.3711C40.7244 6.92447 33.7899 0.150024 25.317 0.150024C22.5881 0.150024 19.8901 0.86558 17.5322 2.21891C16.8828 2.59225 16.6509 3.43225 17.0219 4.08558C17.393 4.73891 18.2279 4.97225 18.8773 4.59891C20.8255 3.47891 23.0519 2.8878 25.317 2.8878C32.1278 2.8878 37.7326 8.17669 38.2892 14.8811H12.3294C12.4995 12.8356 13.1411 10.86 14.2157 9.11002C14.61 8.46447 14.409 7.62447 13.775 7.2278C13.1334 6.83114 12.2985 7.03336 11.9042 7.67114C10.4817 9.98891 9.68547 12.6256 9.57724 15.3478C8.60317 16.39 6.62409 18.8711 7.28894 21.1189C7.56725 22.0678 8.41763 23.2889 10.8683 23.7711C10.9379 23.7867 11.0074 23.7945 11.0847 23.7945V26.6178C11.0847 31.5022 13.5122 35.8189 17.2152 38.4245C17.2152 38.4789 17.2075 38.5334 17.2075 38.5956V39.3811C17.2075 41.6056 15.5608 43.4722 13.373 43.7367C13.3267 43.7367 13.2803 43.7522 13.2416 43.76C13.1334 43.7834 10.6132 44.3511 7.87648 45.3545C4.32033 46.6611 1.73053 49.8111 1.11207 53.5756L0.192114 59.1522C-0.0630006 60.6845 0.864689 62.17 2.34899 62.6134V62.6056Z"/>
</mask>
<path d="M2.88241 59.5956L3.79464 54.0267C4.25076 51.2345 6.16798 48.9011 8.80416 47.9367C10.9842 47.1356 13.0715 46.6222 13.6591 46.4822V51.4911H10.7137C9.96378 51.4911 9.35305 52.1056 9.35305 52.86V61.8434L3.1298 59.9845C2.96745 59.9378 2.85922 59.7667 2.89014 59.5956H2.88241ZM19.9055 39.9256C21.5985 40.6334 23.4539 41.03 25.4021 41.03C27.1183 41.03 28.7727 40.7267 30.3034 40.1667C30.5894 42.7878 32.2902 45.0122 34.6558 45.9845V51.4834H16.3803V45.5645C18.3671 44.4134 19.7277 42.3211 19.9055 39.9256ZM13.806 26.6256V23.8022H36.9132V28.0411C36.2097 33.89 31.2697 38.2845 25.4021 38.2845C19.0087 38.2845 13.806 33.05 13.806 26.6178V26.6256ZM9.8942 20.3567C9.73186 19.8045 10.389 18.63 11.2162 17.6345H39.3638C40.1601 18.6145 40.5389 19.4778 40.4152 20.0611C40.2992 20.5822 39.7658 20.9245 39.4875 21.0645H11.2625C10.4972 20.9011 9.97924 20.6289 9.8942 20.3489V20.3567ZM42.8736 48.5978C42.7499 49.9356 42.8736 51.3045 43.2292 52.6267L41.683 54.4934V52.8522C41.683 52.0978 41.0723 51.4834 40.3224 51.4834H37.377V46.6456C38.4748 46.9334 40.191 47.5011 42.0464 48.2167C42.3324 48.3256 42.6107 48.45 42.8813 48.5978H42.8736ZM47.5043 44.1722C48.834 42.57 50.6352 41.5511 52.6066 41.2322L49.8699 44.53C49.2282 45.3078 49.0427 46.3811 49.3906 47.33L50.813 51.2267C51.1609 52.1756 51.9881 52.8756 52.9777 53.0467L57.044 53.7545C58.0336 53.9256 59.0463 53.5522 59.6957 52.7745L62.4324 49.4767C62.471 51.4834 61.7907 53.4511 60.4687 55.0534C58.5361 57.3789 55.4901 58.4989 52.5215 57.9778C52.0422 57.8922 51.5552 58.0711 51.2382 58.4522L39.0391 73.1678C38.4438 73.8911 37.6012 74.3345 36.6658 74.4122C35.7381 74.4978 34.8259 74.21 34.1146 73.6034L33.9987 73.51C32.5298 72.2734 32.3366 70.0567 33.5657 68.5711L45.8035 53.8167C46.1127 53.4434 46.2055 52.9378 46.0432 52.4789C45.0459 49.6556 45.6025 46.4745 47.512 44.18L47.5043 44.1722ZM25.9355 66.72C25.8737 66.7434 25.8041 66.7434 25.7345 66.72L12.0665 62.6445C12.0665 62.6445 12.0665 62.6134 12.0665 62.6056V54.2211H13.6513V57.0756C13.6513 57.83 14.2621 58.4445 15.012 58.4445C15.7618 58.4445 16.3726 57.83 16.3726 57.0756V54.2211H34.648V57.0756C34.648 57.83 35.2588 58.4445 36.0087 58.4445C36.7585 58.4445 37.3693 57.83 37.3693 57.0756V54.2211H38.9541V57.4022C38.9541 57.5111 38.9695 57.62 38.9927 57.7289L33.5194 64.3323L25.9278 66.72H25.9355ZM2.34899 62.6056L24.9614 69.3489C25.2475 69.4345 25.5412 69.4734 25.835 69.4734C26.1442 69.4734 26.4535 69.4267 26.7472 69.3334L30.6435 68.1045C29.4453 70.6167 30.0328 73.7278 32.2515 75.5945L32.3675 75.6878C33.4962 76.6445 34.8954 77.15 36.3488 77.15C36.5344 77.15 36.7199 77.1423 36.9054 77.1267C38.5598 76.9789 40.0596 76.1934 41.1264 74.9023L52.8462 60.77C53.225 60.8089 53.5961 60.8245 53.9749 60.8245C57.2528 60.8245 60.4224 59.37 62.5638 56.7878C65.0608 53.7778 65.8184 49.6011 64.5351 45.8989C64.3728 45.4322 63.9785 45.09 63.4915 45.0045C63.0122 44.9189 62.5174 45.0978 62.2004 45.4711L57.6084 51.0089C57.6084 51.0089 57.5465 51.0478 57.5156 51.04L53.4492 50.3323C53.4492 50.3323 53.3874 50.3011 53.3719 50.27L51.9495 46.3734C51.9495 46.3734 51.9495 46.3034 51.9649 46.2722L56.557 40.7345C56.8739 40.3534 56.959 39.8322 56.7889 39.3734C56.6188 38.9145 56.2091 38.58 55.7221 38.5022C51.8644 37.8956 47.9217 39.3889 45.4247 42.3989C44.5666 43.4334 43.9172 44.5922 43.4843 45.8289C43.3297 45.7589 43.1828 45.6967 43.0282 45.6422C41.9845 45.2456 38.4593 43.9234 36.8281 43.7289C34.6403 43.4645 32.9937 41.5978 32.9937 39.3734V38.8367C36.5807 36.5811 39.1242 32.77 39.6344 28.2745C39.6344 28.22 39.6421 28.1734 39.6421 28.1189V23.7945H39.7813C39.9359 23.7945 40.0905 23.7711 40.2374 23.7167C40.477 23.6311 42.5798 22.83 43.0746 20.6834C43.4534 19.0656 42.7653 17.2767 41.0414 15.3711C40.7244 6.92447 33.7899 0.150024 25.317 0.150024C22.5881 0.150024 19.8901 0.86558 17.5322 2.21891C16.8828 2.59225 16.6509 3.43225 17.0219 4.08558C17.393 4.73891 18.2279 4.97225 18.8773 4.59891C20.8255 3.47891 23.0519 2.8878 25.317 2.8878C32.1278 2.8878 37.7326 8.17669 38.2892 14.8811H12.3294C12.4995 12.8356 13.1411 10.86 14.2157 9.11002C14.61 8.46447 14.409 7.62447 13.775 7.2278C13.1334 6.83114 12.2985 7.03336 11.9042 7.67114C10.4817 9.98891 9.68547 12.6256 9.57724 15.3478C8.60317 16.39 6.62409 18.8711 7.28894 21.1189C7.56725 22.0678 8.41763 23.2889 10.8683 23.7711C10.9379 23.7867 11.0074 23.7945 11.0847 23.7945V26.6178C11.0847 31.5022 13.5122 35.8189 17.2152 38.4245C17.2152 38.4789 17.2075 38.5334 17.2075 38.5956V39.3811C17.2075 41.6056 15.5608 43.4722 13.373 43.7367C13.3267 43.7367 13.2803 43.7522 13.2416 43.76C13.1334 43.7834 10.6132 44.3511 7.87648 45.3545C4.32033 46.6611 1.73053 49.8111 1.11207 53.5756L0.192114 59.1522C-0.0630006 60.6845 0.864689 62.17 2.34899 62.6134V62.6056Z" fill="#9FCE00"/>
<path d="M2.88241 59.5956L3.79464 54.0267C4.25076 51.2345 6.16798 48.9011 8.80416 47.9367C10.9842 47.1356 13.0715 46.6222 13.6591 46.4822V51.4911H10.7137C9.96378 51.4911 9.35305 52.1056 9.35305 52.86V61.8434L3.1298 59.9845C2.96745 59.9378 2.85922 59.7667 2.89014 59.5956H2.88241ZM19.9055 39.9256C21.5985 40.6334 23.4539 41.03 25.4021 41.03C27.1183 41.03 28.7727 40.7267 30.3034 40.1667C30.5894 42.7878 32.2902 45.0122 34.6558 45.9845V51.4834H16.3803V45.5645C18.3671 44.4134 19.7277 42.3211 19.9055 39.9256ZM13.806 26.6256V23.8022H36.9132V28.0411C36.2097 33.89 31.2697 38.2845 25.4021 38.2845C19.0087 38.2845 13.806 33.05 13.806 26.6178V26.6256ZM9.8942 20.3567C9.73186 19.8045 10.389 18.63 11.2162 17.6345H39.3638C40.1601 18.6145 40.5389 19.4778 40.4152 20.0611C40.2992 20.5822 39.7658 20.9245 39.4875 21.0645H11.2625C10.4972 20.9011 9.97924 20.6289 9.8942 20.3489V20.3567ZM42.8736 48.5978C42.7499 49.9356 42.8736 51.3045 43.2292 52.6267L41.683 54.4934V52.8522C41.683 52.0978 41.0723 51.4834 40.3224 51.4834H37.377V46.6456C38.4748 46.9334 40.191 47.5011 42.0464 48.2167C42.3324 48.3256 42.6107 48.45 42.8813 48.5978H42.8736ZM47.5043 44.1722C48.834 42.57 50.6352 41.5511 52.6066 41.2322L49.8699 44.53C49.2282 45.3078 49.0427 46.3811 49.3906 47.33L50.813 51.2267C51.1609 52.1756 51.9881 52.8756 52.9777 53.0467L57.044 53.7545C58.0336 53.9256 59.0463 53.5522 59.6957 52.7745L62.4324 49.4767C62.471 51.4834 61.7907 53.4511 60.4687 55.0534C58.5361 57.3789 55.4901 58.4989 52.5215 57.9778C52.0422 57.8922 51.5552 58.0711 51.2382 58.4522L39.0391 73.1678C38.4438 73.8911 37.6012 74.3345 36.6658 74.4122C35.7381 74.4978 34.8259 74.21 34.1146 73.6034L33.9987 73.51C32.5298 72.2734 32.3366 70.0567 33.5657 68.5711L45.8035 53.8167C46.1127 53.4434 46.2055 52.9378 46.0432 52.4789C45.0459 49.6556 45.6025 46.4745 47.512 44.18L47.5043 44.1722ZM25.9355 66.72C25.8737 66.7434 25.8041 66.7434 25.7345 66.72L12.0665 62.6445C12.0665 62.6445 12.0665 62.6134 12.0665 62.6056V54.2211H13.6513V57.0756C13.6513 57.83 14.2621 58.4445 15.012 58.4445C15.7618 58.4445 16.3726 57.83 16.3726 57.0756V54.2211H34.648V57.0756C34.648 57.83 35.2588 58.4445 36.0087 58.4445C36.7585 58.4445 37.3693 57.83 37.3693 57.0756V54.2211H38.9541V57.4022C38.9541 57.5111 38.9695 57.62 38.9927 57.7289L33.5194 64.3323L25.9278 66.72H25.9355ZM2.34899 62.6056L24.9614 69.3489C25.2475 69.4345 25.5412 69.4734 25.835 69.4734C26.1442 69.4734 26.4535 69.4267 26.7472 69.3334L30.6435 68.1045C29.4453 70.6167 30.0328 73.7278 32.2515 75.5945L32.3675 75.6878C33.4962 76.6445 34.8954 77.15 36.3488 77.15C36.5344 77.15 36.7199 77.1423 36.9054 77.1267C38.5598 76.9789 40.0596 76.1934 41.1264 74.9023L52.8462 60.77C53.225 60.8089 53.5961 60.8245 53.9749 60.8245C57.2528 60.8245 60.4224 59.37 62.5638 56.7878C65.0608 53.7778 65.8184 49.6011 64.5351 45.8989C64.3728 45.4322 63.9785 45.09 63.4915 45.0045C63.0122 44.9189 62.5174 45.0978 62.2004 45.4711L57.6084 51.0089C57.6084 51.0089 57.5465 51.0478 57.5156 51.04L53.4492 50.3323C53.4492 50.3323 53.3874 50.3011 53.3719 50.27L51.9495 46.3734C51.9495 46.3734 51.9495 46.3034 51.9649 46.2722L56.557 40.7345C56.8739 40.3534 56.959 39.8322 56.7889 39.3734C56.6188 38.9145 56.2091 38.58 55.7221 38.5022C51.8644 37.8956 47.9217 39.3889 45.4247 42.3989C44.5666 43.4334 43.9172 44.5922 43.4843 45.8289C43.3297 45.7589 43.1828 45.6967 43.0282 45.6422C41.9845 45.2456 38.4593 43.9234 36.8281 43.7289C34.6403 43.4645 32.9937 41.5978 32.9937 39.3734V38.8367C36.5807 36.5811 39.1242 32.77 39.6344 28.2745C39.6344 28.22 39.6421 28.1734 39.6421 28.1189V23.7945H39.7813C39.9359 23.7945 40.0905 23.7711 40.2374 23.7167C40.477 23.6311 42.5798 22.83 43.0746 20.6834C43.4534 19.0656 42.7653 17.2767 41.0414 15.3711C40.7244 6.92447 33.7899 0.150024 25.317 0.150024C22.5881 0.150024 19.8901 0.86558 17.5322 2.21891C16.8828 2.59225 16.6509 3.43225 17.0219 4.08558C17.393 4.73891 18.2279 4.97225 18.8773 4.59891C20.8255 3.47891 23.0519 2.8878 25.317 2.8878C32.1278 2.8878 37.7326 8.17669 38.2892 14.8811H12.3294C12.4995 12.8356 13.1411 10.86 14.2157 9.11002C14.61 8.46447 14.409 7.62447 13.775 7.2278C13.1334 6.83114 12.2985 7.03336 11.9042 7.67114C10.4817 9.98891 9.68547 12.6256 9.57724 15.3478C8.60317 16.39 6.62409 18.8711 7.28894 21.1189C7.56725 22.0678 8.41763 23.2889 10.8683 23.7711C10.9379 23.7867 11.0074 23.7945 11.0847 23.7945V26.6178C11.0847 31.5022 13.5122 35.8189 17.2152 38.4245C17.2152 38.4789 17.2075 38.5334 17.2075 38.5956V39.3811C17.2075 41.6056 15.5608 43.4722 13.373 43.7367C13.3267 43.7367 13.2803 43.7522 13.2416 43.76C13.1334 43.7834 10.6132 44.3511 7.87648 45.3545C4.32033 46.6611 1.73053 49.8111 1.11207 53.5756L0.192114 59.1522C-0.0630006 60.6845 0.864689 62.17 2.34899 62.6134V62.6056Z" stroke="#9FCE00" stroke-width="0.3" mask="url(#path-1-outside-1_1_453)"/>
</svg>
