<svg width="77" height="77" viewBox="0 0 77 77" fill="none" xmlns="http://www.w3.org/2000/svg">
<path d="M2.75752 61.0883L3.67631 55.5044C4.1357 52.7047 6.07449 50.3638 8.73741 49.3917C9.7652 49.0184 10.7696 48.7073 11.6183 48.4662L17.2868 58.5607C17.4659 58.8874 17.7773 59.1207 18.1355 59.214C18.2523 59.2451 18.3691 59.2607 18.4859 59.2607C18.735 59.2607 18.9764 59.1907 19.1944 59.0662L25.6337 55.2089L32.073 59.0662C32.291 59.1985 32.5324 59.2607 32.7815 59.2607C32.8983 59.2607 33.0151 59.2451 33.1319 59.214C33.4901 59.1207 33.7938 58.8796 33.9806 58.5607L39.5323 48.6762C40.2019 48.894 40.9416 49.1584 41.7202 49.4461C41.9071 52.5336 42.896 55.5122 44.6012 58.0864L43.1062 59.5795C41.5489 59.4707 40.0228 60.0306 38.9016 61.1505L34.4167 65.63L26.0542 68.2431C25.9919 68.2664 25.9218 68.2664 25.8517 68.2431L2.9989 61.4771C2.8276 61.4305 2.72638 61.2594 2.75752 61.0883ZM15.566 47.4241L23.1654 53.4902L18.992 55.9943L14.3903 47.8052C14.7952 47.7118 15.1923 47.5874 15.566 47.4319V47.4241ZM25.5091 42.4702C27.2455 42.4702 28.9117 42.1669 30.4612 41.5991C30.6559 43.4112 31.5357 45.0288 32.836 46.1798L25.6259 51.9348L17.9486 45.8065C19.0932 44.6322 19.8251 43.0768 19.9575 41.358C21.6705 42.0735 23.547 42.4702 25.5169 42.4702H25.5091ZM29.1609 30.5402C29.1609 31.2557 28.5769 31.8312 27.8684 31.8312C27.1598 31.8312 26.5758 31.248 26.5758 30.5402C26.5758 29.8325 27.1598 29.2493 27.8684 29.2493C28.5769 29.2493 29.1609 29.8325 29.1609 30.5402ZM13.7985 28.0205V25.7574C13.9542 25.3685 14.0477 24.9486 14.0477 24.5053V22.9655C14.8652 22.631 18.1666 21.099 19.7317 17.8093C21.943 18.7037 26.2644 20.2746 28.9974 20.1891C29.3789 20.1735 29.7293 20.0102 29.9863 19.7225C30.2354 19.4425 30.36 19.0614 30.3211 18.6881C30.2588 18.0426 30.2354 17.3505 30.251 16.7439C32.0185 17.9415 34.7359 19.5747 37.0095 20.0646V20.3524C37.0095 20.3524 37.0095 20.4146 37.0095 20.4457C36.9784 20.6246 36.9628 20.8035 36.9628 20.9823V24.5053C36.9628 25.6641 37.5623 26.6829 38.4655 27.2739C38.1152 28.316 37.1341 29.0626 35.9739 29.0626H31.6292C31.0374 27.5617 29.5736 26.4962 27.8684 26.4962C25.6415 26.4962 23.8273 28.3083 23.8273 30.5325C23.8273 32.7567 25.6415 34.5687 27.8684 34.5687C29.6514 34.5687 31.1698 33.41 31.707 31.8001H35.9817C36.1997 31.8001 36.41 31.7846 36.6202 31.7612C35.0474 36.4274 30.6325 39.7171 25.5169 39.7171C19.0543 39.7171 13.7985 34.4676 13.7985 28.0127V28.0205ZM9.52383 25.0652C8.62061 25.0652 7.8887 24.3342 7.8887 23.4321V22.0711C7.8887 21.169 8.62061 20.4379 9.52383 20.4379H10.7307C11.0422 20.4379 11.2913 20.6868 11.2913 20.9979V24.5209C11.2913 24.8319 11.0422 25.0808 10.7307 25.0808H9.52383V25.0652ZM23.3601 2.74528H27.5959C35.1875 2.74528 41.3621 8.91243 41.3621 16.495V17.6849H40.272C40.0929 17.6849 39.9216 17.7004 39.7503 17.7238V16.495C39.7503 9.79901 34.2999 4.35512 27.5959 4.35512H23.3601C16.6561 4.35512 11.2057 9.79901 11.2057 16.495V17.716C11.0499 17.6927 10.902 17.6849 10.7385 17.6849H9.5939V16.495C9.5939 8.91243 15.7684 2.74528 23.3601 2.74528ZM43.223 23.4321C43.223 24.3342 42.4911 25.0652 41.5879 25.0652H40.272C39.9605 25.0652 39.7114 24.8164 39.7114 24.5053V20.9823C39.7114 20.6712 39.9605 20.4224 40.272 20.4224H41.5879C42.4911 20.4224 43.223 21.1534 43.223 22.0555V23.4165V23.4321ZM30.1186 13.2753C29.815 13.042 29.4334 12.9409 29.0519 13.0031C28.6782 13.0653 28.3433 13.2831 28.1331 13.5942C27.5725 14.4341 27.4635 16.0128 27.4868 17.3271C24.8084 16.8994 20.9697 15.3829 19.4903 14.7296C19.1243 14.5663 18.7039 14.5741 18.3379 14.7452C17.972 14.9163 17.7072 15.2429 17.606 15.6318C17.0143 17.8793 15.1378 19.2636 13.9465 19.948C13.9465 19.9402 13.9465 19.9247 13.9465 19.9169V16.4872C13.9465 11.3077 18.1666 7.08484 23.3601 7.08484H27.5959C32.7815 7.08484 37.0017 11.3 37.0017 16.4872V17.226C34.6191 16.4872 31.3333 14.2086 30.1186 13.2675V13.2753ZM36.7915 47.9296L32.2676 55.9866L28.0942 53.4824L35.4211 47.6341C35.8416 47.7663 36.2776 47.8596 36.7292 47.9141C36.7526 47.9141 36.7759 47.914 36.7915 47.9218V47.9296ZM2.22027 64.1135L25.0731 70.8795C25.3612 70.965 25.6571 71.0039 25.9529 71.0039C26.2644 71.0039 26.5758 70.9573 26.8795 70.864L31.0919 69.5496C30.2899 71.5017 30.687 73.8348 32.2676 75.4213C33.3188 76.4712 34.7048 77 36.0907 77C37.4767 77 38.8626 76.4712 39.9138 75.4213L46.5477 68.7953C47.7001 67.6443 48.2607 66.0811 48.1128 64.4946L48.7279 63.8802C48.7279 63.8802 48.7279 63.8724 48.7435 63.8647L49.5532 63.0559C52.5198 65.0312 55.9302 66.0033 59.3251 66.0033C63.8723 66.0033 68.4117 64.2613 71.8299 60.8472C75.1624 57.5186 77 53.0857 77 48.3729C77 43.66 75.1624 39.2349 71.8299 35.8986C69.5874 33.6588 66.7844 32.0645 63.7243 31.2791C62.9924 31.0924 62.2372 31.5357 62.0503 32.2667C61.8634 32.9978 62.3072 33.7521 63.0391 33.9388C65.6164 34.5998 67.9835 35.9453 69.8755 37.8351C72.6942 40.6503 74.2436 44.3911 74.2436 48.3651C74.2436 52.3392 72.6942 56.0799 69.8755 58.8952C64.5886 64.1757 56.1405 64.7201 50.2307 60.1628C49.6856 59.7429 48.907 59.7895 48.4165 60.2795L46.7735 61.9126L45.6601 63.0247C45.3175 63.3669 45.1851 63.8569 45.2941 64.3157C45.5122 65.2256 45.2552 66.1666 44.5934 66.8277L37.9594 73.4537C36.9239 74.488 35.2342 74.488 34.1986 73.4537C33.1631 72.4193 33.1631 70.7317 34.1986 69.6974L36.1219 67.7765L40.8326 63.0714C41.4788 62.4259 42.3898 62.1615 43.2853 62.3559C43.7447 62.457 44.2196 62.317 44.5544 61.9826L47.3575 59.1829C47.848 58.693 47.8948 57.923 47.4743 57.3786C42.9582 51.4837 43.5266 43.0768 48.7902 37.8195C50.62 35.9919 52.9014 34.6621 55.3852 33.9855C56.1171 33.7833 56.5454 33.0289 56.3507 32.2978C56.1483 31.5668 55.393 31.1391 54.6611 31.3335C51.7178 32.1345 49.016 33.7055 46.8436 35.8753C43.9705 38.745 42.1874 42.5013 41.7669 46.522C40.2564 45.9854 38.1852 45.301 37.0406 45.1688C34.8293 44.9044 33.1631 43.0301 33.1631 40.7981V40.2615C36.6513 38.0917 39.1585 34.4599 39.8048 30.1747C40.4433 29.5215 40.926 28.7049 41.1674 27.795H41.5801C44.0016 27.795 45.9638 25.8274 45.9638 23.4165V22.0555C45.9638 20.5779 45.2241 19.2714 44.1028 18.4781V16.4872C44.1028 7.39592 36.6981 0 27.5959 0H23.3601C14.2501 0 6.84534 7.39592 6.84534 16.495V18.6026C5.80976 19.4036 5.14013 20.6557 5.14013 22.0633V23.4243C5.14013 25.8429 7.11007 27.8027 9.52383 27.8027H10.7307C10.8319 27.8027 10.9409 27.8027 11.0422 27.7872V28.0127C11.0422 32.9122 13.4948 37.244 17.2323 39.8571C17.2323 39.9115 17.2245 39.966 17.2245 40.0282V40.8137C17.2245 43.0457 15.5582 44.9199 13.3469 45.1843C13.3002 45.1843 13.2535 45.1999 13.2145 45.2077C13.1055 45.231 10.5594 45.7987 7.79527 46.8097C4.20578 48.1162 1.58179 51.2815 0.958885 55.0533L0.0400999 60.645C-0.209062 62.1848 0.725295 63.6702 2.22027 64.1135Z" fill="#9FCE00"/>
</svg>
