<svg width="47" height="68" viewBox="0 0 47 68" fill="none" xmlns="http://www.w3.org/2000/svg">
<path d="M38.3512 7.6178C39.0164 7.14852 39.9476 7.24451 40.4977 7.86584C44.0622 11.8905 46.2252 17.1655 46.2252 22.9362C46.2251 31.0564 41.9399 38.1919 35.4928 42.2477V57.9635C35.4926 58.8458 34.7694 59.5602 33.8805 59.5602C32.9917 59.56 32.2693 58.8456 32.2692 57.9635V43.9362C29.472 45.1313 26.3888 45.7955 23.15 45.7955C19.9112 45.7955 16.8279 45.1313 14.0309 43.9362V63.9391L22.2076 58.0914C22.77 57.6875 23.5299 57.6876 24.0924 58.0914H24.0934L24.0944 58.0924C24.0953 58.0931 24.0966 58.0941 24.0983 58.0953C24.1022 58.0982 24.109 58.1024 24.1168 58.108C24.1325 58.1192 24.1551 58.1363 24.1852 58.1578C24.2458 58.2012 24.3357 58.2644 24.4489 58.3453C24.6752 58.5073 24.9984 58.7387 25.3864 59.0162C26.1624 59.5715 27.1967 60.3123 28.2311 61.0524C29.2656 61.7925 30.3006 62.5328 31.0758 63.0875C31.4632 63.3647 31.7858 63.596 32.0114 63.7574C32.1216 63.8363 32.2091 63.898 32.2692 63.941V62.5309C32.2692 61.6485 32.9916 60.9334 33.8805 60.9332C34.7695 60.9332 35.4928 61.6484 35.4928 62.5309V64.0944C35.4925 66.5805 32.6845 68.1611 30.4918 66.609L30.4908 66.608L30.484 66.6031V66.6022L23.15 61.3561L15.8151 66.6022L15.816 66.6031L15.8092 66.608L15.8082 66.609C13.6155 68.1611 10.8076 66.5805 10.8073 64.0944V42.2477C7.46884 40.1477 4.71029 37.2251 2.82678 33.7643C2.40407 32.9889 2.69888 32.0185 3.48206 31.6002C4.26474 31.1826 5.24218 31.4714 5.66467 32.2477C9.01889 38.4098 15.5931 42.6002 23.15 42.6002C34.1074 42.6002 43.0014 33.7882 43.0016 22.9362C43.0016 17.9725 41.1419 13.4358 38.0739 9.97327C37.4868 9.31167 37.555 8.30068 38.2223 7.71936L38.3512 7.6178ZM32.3239 64.026C32.3144 64.0285 32.3078 64.0342 32.3014 64.0387C32.2979 64.0425 32.2962 64.0473 32.2936 64.0514C32.3069 64.061 32.3154 64.0674 32.319 64.0699L32.3444 64.0309V64.026C32.338 64.0259 32.3312 64.024 32.3239 64.026ZM22.4547 10.0699C23.8231 9.74727 25.5388 10.3875 26.1578 11.9547L26.2145 12.109V12.11L27.734 16.7789C27.7402 16.7798 27.7456 16.7819 27.7496 16.7819H32.6549C34.2138 16.782 35.2887 17.7383 35.6793 18.899C36.0698 20.06 35.7881 21.4633 34.5338 22.3961V22.3971L34.4889 22.3356L34.5328 22.3971C34.5324 22.3974 34.5317 22.3984 34.5309 22.399C34.529 22.4004 34.5258 22.4022 34.5221 22.4049C34.5146 22.4103 34.5034 22.4188 34.4889 22.4293C34.4597 22.4504 34.4164 22.4807 34.3619 22.5201C34.2531 22.599 34.0975 22.7121 33.9108 22.8473C33.5374 23.1175 33.0397 23.4779 32.5416 23.8385C32.0434 24.1992 31.5441 24.5604 31.1696 24.8317C30.9824 24.9672 30.8261 25.0803 30.7164 25.1598C30.6618 25.1994 30.6191 25.2311 30.5895 25.2526C30.5573 25.2759 30.5445 25.2845 30.5465 25.2828L30.5446 25.2848C30.547 25.2922 30.5499 25.3015 30.5533 25.3121C30.5644 25.346 30.5807 25.3955 30.6012 25.4586C30.6424 25.5851 30.7006 25.7663 30.7711 25.983C30.9122 26.4165 31.1008 26.9945 31.2887 27.5719C31.4766 28.1493 31.6648 28.7261 31.8053 29.1578C31.8755 29.3735 31.9335 29.5532 31.9742 29.6783C31.9946 29.7409 32.0103 29.7907 32.0211 29.8239C32.0265 29.8403 32.0311 29.8526 32.0338 29.861C32.0352 29.8651 32.0361 29.8687 32.0367 29.8707L32.0377 29.8727C32.0378 29.8729 32.0384 29.8754 32.0387 29.8766H32.0377C32.5097 31.2824 31.9053 32.6174 30.8834 33.3561C29.8271 34.1211 28.367 34.2429 27.2184 33.3092L23.3024 30.4742L19.3502 33.3356C16.8022 35.2112 13.6156 32.706 14.5641 29.8864V29.8854L14.5651 29.8834C14.5658 29.8812 14.5666 29.8779 14.568 29.8737C14.5708 29.8649 14.5752 29.8516 14.5807 29.8346C14.5917 29.8007 14.6079 29.7505 14.6285 29.6871C14.6698 29.5605 14.7288 29.3797 14.7994 29.1627C14.9409 28.7284 15.1294 28.1493 15.318 27.5699C15.5066 26.9905 15.6951 26.4104 15.8365 25.9752C15.9073 25.7576 15.9672 25.5761 16.0084 25.4489C16.029 25.3854 16.0453 25.3355 16.0563 25.3014C16.0582 25.2954 16.0596 25.2898 16.0612 25.2848L12.0739 22.3971V22.3961L12.0709 22.3951L12.0651 22.3922L12.11 22.3317L12.0651 22.3912C10.8171 21.463 10.5378 20.0597 10.9283 18.899C11.3188 17.7383 12.3919 16.782 13.9508 16.7819H18.7799C18.8133 16.7537 18.8692 16.703 18.9117 16.652C18.9144 16.6437 18.9197 16.6324 18.9244 16.6178C18.935 16.5854 18.9507 16.5376 18.9703 16.4772C19.0097 16.3562 19.066 16.1834 19.1334 15.9762C19.2686 15.5611 19.4484 15.0069 19.6285 14.4537C19.8087 13.9006 19.9895 13.3475 20.1246 12.9332C20.1921 12.7262 20.2483 12.5537 20.2877 12.4332C20.3074 12.373 20.323 12.3257 20.3336 12.2936C20.3389 12.2775 20.3426 12.2648 20.3453 12.2565L20.3492 12.2467C20.5544 11.0534 21.4094 10.3158 22.4547 10.0699ZM21.8893 17.9166L21.8854 17.9274L21.818 17.8932L21.8844 17.9274L21.8326 18.0309C21.2496 19.1843 20.0312 19.9762 18.858 19.9762H14.194C14.5414 20.228 15.2954 20.7741 16.0319 21.3073C16.5023 21.6478 16.966 21.9831 17.3112 22.233C17.4836 22.3579 17.6265 22.4615 17.7262 22.5338C17.776 22.5699 17.8149 22.5985 17.8414 22.6178C17.8545 22.6273 17.8649 22.6343 17.8717 22.6393C17.875 22.6417 17.8777 22.6438 17.8795 22.6451C19.0809 23.3321 19.5065 24.8205 19.1949 26.0573L19.1823 26.1051L19.1813 26.11L17.736 30.5494C18.1603 30.2421 18.9736 29.6533 19.7291 29.1061C20.1741 28.7838 20.6 28.4758 20.9137 28.2487C21.0704 28.1352 21.1989 28.0412 21.2887 27.9762C21.3336 27.9437 21.3693 27.9183 21.3932 27.901L21.4274 27.8766L21.4283 27.8746H21.4293L21.6608 27.7164C22.2043 27.3737 22.7573 27.2223 23.3033 27.2223C23.9258 27.2223 24.5593 27.4197 25.1783 27.8746H25.1774L28.8707 30.5475L27.4264 26.11L27.4244 26.1051L27.4127 26.0573C27.2608 25.4545 27.2563 24.8463 27.4459 24.274C27.6357 23.7016 28.018 23.1694 28.6295 22.7145L28.6305 22.7135H28.6315C28.6319 22.7132 28.6326 22.7122 28.6334 22.7115C28.6352 22.7103 28.638 22.7081 28.6412 22.7057C28.6481 22.7007 28.6584 22.6937 28.6715 22.6842C28.6981 22.6649 28.7369 22.6363 28.7867 22.6002C28.8866 22.5279 29.03 22.4245 29.2028 22.2994C29.5482 22.0494 30.0122 21.7134 30.4869 21.3698C31.2514 20.8163 32.0435 20.243 32.4117 19.9762H27.7496C26.1987 19.9762 25.0052 18.9884 24.6686 17.7643V17.7633L23.3033 13.5719L21.8893 17.9166ZM31.9557 29.8658C31.9609 29.8819 31.9644 29.8918 31.9655 29.8951L32.0367 29.8717C32.0328 29.8694 31.9952 29.8545 31.9557 29.8658ZM23.15 0.0748291C28.0648 0.0748291 32.624 1.60123 36.3688 4.20081C37.0972 4.70561 37.2746 5.70223 36.7633 6.42444C36.2524 7.14629 35.2474 7.3214 34.5192 6.81702C31.2981 4.58145 27.3771 3.27014 23.15 3.27014C12.1924 3.27014 3.29846 12.0824 3.29846 22.9362C3.29847 23.4137 3.31656 23.8869 3.35022 24.3571C3.41308 25.2363 2.74392 26.0009 1.85803 26.0631C0.970732 26.127 0.19834 25.4644 0.135376 24.5836C0.0953327 24.0399 0.0748382 23.4903 0.0748291 22.9362C0.0748291 10.3175 10.416 0.0748291 23.15 0.0748291ZM17.8707 22.6403C17.8382 22.6455 17.8186 22.664 17.8053 22.6842C17.821 22.6956 17.8314 22.7026 17.8356 22.7057L17.8707 22.6403ZM20.3463 12.2682C20.3625 12.293 20.3849 12.3036 20.4069 12.3092C20.4123 12.2926 20.4154 12.2806 20.4176 12.274L20.3463 12.2682Z" fill="#9FCE00" stroke="#9FCE00" stroke-width="0.15"/>
</svg>
