<svg width="87" height="55" viewBox="0 0 87 55" fill="none" xmlns="http://www.w3.org/2000/svg">
<mask id="path-1-outside-1_1_456" maskUnits="userSpaceOnUse" x="-0.849976" y="-0.849976" width="88" height="56" fill="black">
<rect fill="white" x="-0.849976" y="-0.849976" width="88" height="56"/>
<path d="M80.1031 23.0667L77.9196 14.2334C78.1995 14.1778 78.4375 14.025 78.6334 13.775C78.8294 13.525 78.9274 13.2334 78.9274 12.9V11.4834C78.9274 9.9278 78.3815 8.60836 77.2897 7.52502C76.1979 6.44169 74.8681 5.90002 73.3004 5.90002H63.1383V2.90002C63.1383 2.1778 62.8724 1.53891 62.3405 0.983356C61.8086 0.427799 61.1507 0.150024 60.3668 0.150024H8.71643C7.93258 0.150024 7.2607 0.427799 6.70081 0.983356C6.14091 1.53891 5.86096 2.1778 5.86096 2.90002V27.15C5.86096 27.5389 6.00094 27.8584 6.28088 28.1084C6.56083 28.3584 6.86877 28.4834 7.20471 28.4834C7.59664 28.4834 7.91858 28.3584 8.17053 28.1084C8.42249 27.8584 8.54846 27.5389 8.54846 27.15V2.90002C8.54846 2.90002 8.56246 2.88614 8.59045 2.85836C8.61845 2.83058 8.66044 2.81669 8.71643 2.81669H60.3668C60.4228 2.81669 60.4508 2.83058 60.4508 2.85836C60.4508 2.88614 60.4508 2.90002 60.4508 2.90002V27.15C60.4508 27.5389 60.5908 27.8584 60.8707 28.1084C61.1507 28.3584 61.4586 28.4834 61.7946 28.4834C62.1865 28.4834 62.5084 28.3584 62.7604 28.1084C63.0123 27.8584 63.1383 27.5389 63.1383 27.15V25.65H79.0953C80.0472 25.65 80.901 25.9278 81.6569 26.4834C82.4127 27.0389 82.9306 27.7611 83.2106 28.65H79.0953C78.7034 28.65 78.3815 28.7889 78.1295 29.0667C77.8776 29.3445 77.7516 29.65 77.7516 29.9834V32.8167C77.7516 33.9834 78.1575 34.9834 78.9694 35.8167C79.7812 36.65 80.775 37.0667 81.9508 37.0667H83.4625V42.9H79.9352C79.3753 41.2334 78.3535 39.8722 76.8698 38.8167C75.386 37.7611 73.7203 37.2334 71.8727 37.2334C70.025 37.2334 68.3593 37.7611 66.8756 38.8167C65.3919 39.8722 64.3701 41.2334 63.8102 42.9H63.1383V32.8167C63.1383 32.4834 63.0123 32.1778 62.7604 31.9C62.5084 31.6222 62.1865 31.4834 61.7946 31.4834C61.4586 31.4834 61.1507 31.6222 60.8707 31.9C60.5908 32.1778 60.4508 32.4834 60.4508 32.8167V42.9H32.568C31.9521 41.2334 30.9163 39.8722 29.4606 38.8167C28.0048 37.7611 26.3531 37.2334 24.5055 37.2334C22.6018 37.2334 20.9222 37.7611 19.4664 38.8167C18.0107 39.8722 17.0029 41.2334 16.443 42.9H8.71643C8.66044 42.9 8.61845 42.9 8.59045 42.9C8.56246 42.9 8.54846 42.8722 8.54846 42.8167V39.9H14.4274C14.8193 39.9 15.1412 39.7611 15.3932 39.4834C15.6451 39.2056 15.7711 38.9 15.7711 38.5667C15.7711 38.1778 15.6451 37.8584 15.3932 37.6084C15.1412 37.3584 14.8193 37.2334 14.4274 37.2334H1.49377C1.10185 37.2334 0.779907 37.3584 0.527954 37.6084C0.276001 37.8584 0.150024 38.1778 0.150024 38.5667C0.150024 38.9 0.276001 39.2056 0.527954 39.4834C0.779907 39.7611 1.10185 39.9 1.49377 39.9H5.86096V42.8167C5.86096 43.5945 6.14091 44.2472 6.70081 44.775C7.2607 45.3028 7.93258 45.5667 8.71643 45.5667H15.9391C15.9391 45.6222 15.9391 45.65 15.9391 45.65C15.9391 47.9834 16.7789 49.9834 18.4586 51.65C20.1383 53.3167 22.1539 54.15 24.5055 54.15C26.8571 54.15 28.8587 53.3167 30.5104 51.65C32.1621 49.9834 32.9879 47.9834 32.9879 45.65C32.9879 45.65 32.9879 45.6222 32.9879 45.5667H63.3903C63.3903 45.6222 63.3763 45.65 63.3483 45.65C63.3203 45.65 63.3063 45.65 63.3063 45.65C63.3063 47.9834 64.1461 49.9834 65.8258 51.65C67.5055 53.3167 69.5211 54.15 71.8727 54.15C74.2242 54.15 76.2399 53.3167 77.9196 51.65C79.5992 49.9834 80.4391 47.9834 80.4391 45.65C80.4391 45.65 80.4391 45.6222 80.4391 45.5667H84.8063C85.1982 45.5667 85.5201 45.4417 85.7721 45.1917C86.024 44.9417 86.15 44.6222 86.15 44.2334V29.9834C86.15 28.2611 85.5761 26.7334 84.4283 25.4C83.2806 24.0667 81.8388 23.2889 80.1031 23.0667ZM63.1383 8.56669H73.3004C74.1403 8.56669 74.8401 8.84447 75.4 9.40002C75.9599 9.95558 76.2399 10.65 76.2399 11.4834V11.5667H63.1383V8.56669ZM63.1383 22.9834V14.2334H75.1481L77.3317 22.9834H63.1383ZM24.5055 51.4834C22.8818 51.4834 21.4961 50.9139 20.3483 49.775C19.2005 48.6361 18.6266 47.2611 18.6266 45.65C18.6266 44.0945 19.2005 42.7472 20.3483 41.6084C21.4961 40.4695 22.8818 39.9 24.5055 39.9C26.0732 39.9 27.4309 40.4695 28.5787 41.6084C29.7265 42.7472 30.3004 44.0945 30.3004 45.65C30.3004 47.2611 29.7265 48.6361 28.5787 49.775C27.4309 50.9139 26.0732 51.4834 24.5055 51.4834ZM71.8727 51.4834C70.249 51.4834 68.8772 50.9139 67.7574 49.775C66.6377 48.6361 66.0778 47.2611 66.0778 45.65C66.0778 44.0945 66.6377 42.7472 67.7574 41.6084C68.8772 40.4695 70.249 39.9 71.8727 39.9C73.4964 39.9 74.8821 40.4695 76.0299 41.6084C77.1777 42.7472 77.7516 44.0945 77.7516 45.65C77.7516 47.2611 77.1777 48.6361 76.0299 49.775C74.8821 50.9139 73.4964 51.4834 71.8727 51.4834ZM83.4625 34.4H81.9508C81.5029 34.4 81.139 34.2472 80.859 33.9417C80.5791 33.6361 80.4391 33.2611 80.4391 32.8167V31.3167H83.4625V34.4ZM24.5055 42.9C23.7216 42.9 23.0638 43.1778 22.5319 43.7334C22 44.2889 21.734 44.9278 21.734 45.65C21.734 46.4278 22 47.0806 22.5319 47.6084C23.0638 48.1361 23.7216 48.4 24.5055 48.4C25.2334 48.4 25.8772 48.1361 26.4371 47.6084C26.997 47.0806 27.277 46.4278 27.277 45.65C27.277 44.9278 26.997 44.2889 26.4371 43.7334C25.8772 43.1778 25.2334 42.9 24.5055 42.9ZM71.8727 42.9C71.0888 42.9 70.4309 43.1778 69.899 43.7334C69.3671 44.2889 69.1012 44.9278 69.1012 45.65C69.1012 46.4278 69.3671 47.0806 69.899 47.6084C70.4309 48.1361 71.0888 48.4 71.8727 48.4C72.6565 48.4 73.3144 48.1361 73.8463 47.6084C74.3782 47.0806 74.6442 46.4278 74.6442 45.65C74.6442 44.9278 74.3782 44.2889 73.8463 43.7334C73.3144 43.1778 72.6565 42.9 71.8727 42.9ZM56.0836 37.2334H35.9274C35.5914 37.2334 35.2835 37.3584 35.0035 37.6084C34.7236 37.8584 34.5836 38.1778 34.5836 38.5667C34.5836 38.9 34.7236 39.2056 35.0035 39.4834C35.2835 39.7611 35.5914 39.9 35.9274 39.9H56.0836C56.4755 39.9 56.7975 39.7611 57.0494 39.4834C57.3014 39.2056 57.4274 38.9 57.4274 38.5667C57.4274 38.1778 57.3014 37.8584 57.0494 37.6084C56.7975 37.3584 56.4755 37.2334 56.0836 37.2334ZM21.566 31.4834H4.34924C4.01331 31.4834 3.70536 31.6222 3.42542 31.9C3.14547 32.1778 3.00549 32.4834 3.00549 32.8167C3.00549 33.2056 3.14547 33.525 3.42542 33.775C3.70536 34.025 4.01331 34.15 4.34924 34.15H21.566C21.958 34.15 22.2799 34.025 22.5319 33.775C22.7838 33.525 22.9098 33.2056 22.9098 32.8167C22.9098 32.4834 22.7838 32.1778 22.5319 31.9C22.2799 31.6222 21.958 31.4834 21.566 31.4834ZM47.0133 13.4C46.7334 13.1222 46.4114 12.9834 46.0475 12.9834C45.6836 12.9834 45.3616 13.1222 45.0817 13.4L33.0719 25.2334L26.8571 19.0667C26.5771 18.7889 26.2552 18.65 25.8912 18.65C25.5273 18.65 25.2054 18.7889 24.9254 19.0667C24.7015 19.3445 24.5895 19.6639 24.5895 20.025C24.5895 20.3861 24.7015 20.7056 24.9254 20.9834L32.1481 28.0667C32.2601 28.2334 32.4 28.3445 32.568 28.4C32.736 28.4556 32.9039 28.4834 33.0719 28.4834C33.2399 28.4834 33.4078 28.4556 33.5758 28.4C33.7438 28.3445 33.9117 28.2334 34.0797 28.0667L47.0133 15.2334C47.2373 15.0111 47.3492 14.7056 47.3492 14.3167C47.3492 13.9278 47.2373 13.6222 47.0133 13.4Z"/>
</mask>
<path d="M80.1031 23.0667L77.9196 14.2334C78.1995 14.1778 78.4375 14.025 78.6334 13.775C78.8294 13.525 78.9274 13.2334 78.9274 12.9V11.4834C78.9274 9.9278 78.3815 8.60836 77.2897 7.52502C76.1979 6.44169 74.8681 5.90002 73.3004 5.90002H63.1383V2.90002C63.1383 2.1778 62.8724 1.53891 62.3405 0.983356C61.8086 0.427799 61.1507 0.150024 60.3668 0.150024H8.71643C7.93258 0.150024 7.2607 0.427799 6.70081 0.983356C6.14091 1.53891 5.86096 2.1778 5.86096 2.90002V27.15C5.86096 27.5389 6.00094 27.8584 6.28088 28.1084C6.56083 28.3584 6.86877 28.4834 7.20471 28.4834C7.59664 28.4834 7.91858 28.3584 8.17053 28.1084C8.42249 27.8584 8.54846 27.5389 8.54846 27.15V2.90002C8.54846 2.90002 8.56246 2.88614 8.59045 2.85836C8.61845 2.83058 8.66044 2.81669 8.71643 2.81669H60.3668C60.4228 2.81669 60.4508 2.83058 60.4508 2.85836C60.4508 2.88614 60.4508 2.90002 60.4508 2.90002V27.15C60.4508 27.5389 60.5908 27.8584 60.8707 28.1084C61.1507 28.3584 61.4586 28.4834 61.7946 28.4834C62.1865 28.4834 62.5084 28.3584 62.7604 28.1084C63.0123 27.8584 63.1383 27.5389 63.1383 27.15V25.65H79.0953C80.0472 25.65 80.901 25.9278 81.6569 26.4834C82.4127 27.0389 82.9306 27.7611 83.2106 28.65H79.0953C78.7034 28.65 78.3815 28.7889 78.1295 29.0667C77.8776 29.3445 77.7516 29.65 77.7516 29.9834V32.8167C77.7516 33.9834 78.1575 34.9834 78.9694 35.8167C79.7812 36.65 80.775 37.0667 81.9508 37.0667H83.4625V42.9H79.9352C79.3753 41.2334 78.3535 39.8722 76.8698 38.8167C75.386 37.7611 73.7203 37.2334 71.8727 37.2334C70.025 37.2334 68.3593 37.7611 66.8756 38.8167C65.3919 39.8722 64.3701 41.2334 63.8102 42.9H63.1383V32.8167C63.1383 32.4834 63.0123 32.1778 62.7604 31.9C62.5084 31.6222 62.1865 31.4834 61.7946 31.4834C61.4586 31.4834 61.1507 31.6222 60.8707 31.9C60.5908 32.1778 60.4508 32.4834 60.4508 32.8167V42.9H32.568C31.9521 41.2334 30.9163 39.8722 29.4606 38.8167C28.0048 37.7611 26.3531 37.2334 24.5055 37.2334C22.6018 37.2334 20.9222 37.7611 19.4664 38.8167C18.0107 39.8722 17.0029 41.2334 16.443 42.9H8.71643C8.66044 42.9 8.61845 42.9 8.59045 42.9C8.56246 42.9 8.54846 42.8722 8.54846 42.8167V39.9H14.4274C14.8193 39.9 15.1412 39.7611 15.3932 39.4834C15.6451 39.2056 15.7711 38.9 15.7711 38.5667C15.7711 38.1778 15.6451 37.8584 15.3932 37.6084C15.1412 37.3584 14.8193 37.2334 14.4274 37.2334H1.49377C1.10185 37.2334 0.779907 37.3584 0.527954 37.6084C0.276001 37.8584 0.150024 38.1778 0.150024 38.5667C0.150024 38.9 0.276001 39.2056 0.527954 39.4834C0.779907 39.7611 1.10185 39.9 1.49377 39.9H5.86096V42.8167C5.86096 43.5945 6.14091 44.2472 6.70081 44.775C7.2607 45.3028 7.93258 45.5667 8.71643 45.5667H15.9391C15.9391 45.6222 15.9391 45.65 15.9391 45.65C15.9391 47.9834 16.7789 49.9834 18.4586 51.65C20.1383 53.3167 22.1539 54.15 24.5055 54.15C26.8571 54.15 28.8587 53.3167 30.5104 51.65C32.1621 49.9834 32.9879 47.9834 32.9879 45.65C32.9879 45.65 32.9879 45.6222 32.9879 45.5667H63.3903C63.3903 45.6222 63.3763 45.65 63.3483 45.65C63.3203 45.65 63.3063 45.65 63.3063 45.65C63.3063 47.9834 64.1461 49.9834 65.8258 51.65C67.5055 53.3167 69.5211 54.15 71.8727 54.15C74.2242 54.15 76.2399 53.3167 77.9196 51.65C79.5992 49.9834 80.4391 47.9834 80.4391 45.65C80.4391 45.65 80.4391 45.6222 80.4391 45.5667H84.8063C85.1982 45.5667 85.5201 45.4417 85.7721 45.1917C86.024 44.9417 86.15 44.6222 86.15 44.2334V29.9834C86.15 28.2611 85.5761 26.7334 84.4283 25.4C83.2806 24.0667 81.8388 23.2889 80.1031 23.0667ZM63.1383 8.56669H73.3004C74.1403 8.56669 74.8401 8.84447 75.4 9.40002C75.9599 9.95558 76.2399 10.65 76.2399 11.4834V11.5667H63.1383V8.56669ZM63.1383 22.9834V14.2334H75.1481L77.3317 22.9834H63.1383ZM24.5055 51.4834C22.8818 51.4834 21.4961 50.9139 20.3483 49.775C19.2005 48.6361 18.6266 47.2611 18.6266 45.65C18.6266 44.0945 19.2005 42.7472 20.3483 41.6084C21.4961 40.4695 22.8818 39.9 24.5055 39.9C26.0732 39.9 27.4309 40.4695 28.5787 41.6084C29.7265 42.7472 30.3004 44.0945 30.3004 45.65C30.3004 47.2611 29.7265 48.6361 28.5787 49.775C27.4309 50.9139 26.0732 51.4834 24.5055 51.4834ZM71.8727 51.4834C70.249 51.4834 68.8772 50.9139 67.7574 49.775C66.6377 48.6361 66.0778 47.2611 66.0778 45.65C66.0778 44.0945 66.6377 42.7472 67.7574 41.6084C68.8772 40.4695 70.249 39.9 71.8727 39.9C73.4964 39.9 74.8821 40.4695 76.0299 41.6084C77.1777 42.7472 77.7516 44.0945 77.7516 45.65C77.7516 47.2611 77.1777 48.6361 76.0299 49.775C74.8821 50.9139 73.4964 51.4834 71.8727 51.4834ZM83.4625 34.4H81.9508C81.5029 34.4 81.139 34.2472 80.859 33.9417C80.5791 33.6361 80.4391 33.2611 80.4391 32.8167V31.3167H83.4625V34.4ZM24.5055 42.9C23.7216 42.9 23.0638 43.1778 22.5319 43.7334C22 44.2889 21.734 44.9278 21.734 45.65C21.734 46.4278 22 47.0806 22.5319 47.6084C23.0638 48.1361 23.7216 48.4 24.5055 48.4C25.2334 48.4 25.8772 48.1361 26.4371 47.6084C26.997 47.0806 27.277 46.4278 27.277 45.65C27.277 44.9278 26.997 44.2889 26.4371 43.7334C25.8772 43.1778 25.2334 42.9 24.5055 42.9ZM71.8727 42.9C71.0888 42.9 70.4309 43.1778 69.899 43.7334C69.3671 44.2889 69.1012 44.9278 69.1012 45.65C69.1012 46.4278 69.3671 47.0806 69.899 47.6084C70.4309 48.1361 71.0888 48.4 71.8727 48.4C72.6565 48.4 73.3144 48.1361 73.8463 47.6084C74.3782 47.0806 74.6442 46.4278 74.6442 45.65C74.6442 44.9278 74.3782 44.2889 73.8463 43.7334C73.3144 43.1778 72.6565 42.9 71.8727 42.9ZM56.0836 37.2334H35.9274C35.5914 37.2334 35.2835 37.3584 35.0035 37.6084C34.7236 37.8584 34.5836 38.1778 34.5836 38.5667C34.5836 38.9 34.7236 39.2056 35.0035 39.4834C35.2835 39.7611 35.5914 39.9 35.9274 39.9H56.0836C56.4755 39.9 56.7975 39.7611 57.0494 39.4834C57.3014 39.2056 57.4274 38.9 57.4274 38.5667C57.4274 38.1778 57.3014 37.8584 57.0494 37.6084C56.7975 37.3584 56.4755 37.2334 56.0836 37.2334ZM21.566 31.4834H4.34924C4.01331 31.4834 3.70536 31.6222 3.42542 31.9C3.14547 32.1778 3.00549 32.4834 3.00549 32.8167C3.00549 33.2056 3.14547 33.525 3.42542 33.775C3.70536 34.025 4.01331 34.15 4.34924 34.15H21.566C21.958 34.15 22.2799 34.025 22.5319 33.775C22.7838 33.525 22.9098 33.2056 22.9098 32.8167C22.9098 32.4834 22.7838 32.1778 22.5319 31.9C22.2799 31.6222 21.958 31.4834 21.566 31.4834ZM47.0133 13.4C46.7334 13.1222 46.4114 12.9834 46.0475 12.9834C45.6836 12.9834 45.3616 13.1222 45.0817 13.4L33.0719 25.2334L26.8571 19.0667C26.5771 18.7889 26.2552 18.65 25.8912 18.65C25.5273 18.65 25.2054 18.7889 24.9254 19.0667C24.7015 19.3445 24.5895 19.6639 24.5895 20.025C24.5895 20.3861 24.7015 20.7056 24.9254 20.9834L32.1481 28.0667C32.2601 28.2334 32.4 28.3445 32.568 28.4C32.736 28.4556 32.9039 28.4834 33.0719 28.4834C33.2399 28.4834 33.4078 28.4556 33.5758 28.4C33.7438 28.3445 33.9117 28.2334 34.0797 28.0667L47.0133 15.2334C47.2373 15.0111 47.3492 14.7056 47.3492 14.3167C47.3492 13.9278 47.2373 13.6222 47.0133 13.4Z" fill="#9FCE00"/>
<path d="M80.1031 23.0667L77.9196 14.2334C78.1995 14.1778 78.4375 14.025 78.6334 13.775C78.8294 13.525 78.9274 13.2334 78.9274 12.9V11.4834C78.9274 9.9278 78.3815 8.60836 77.2897 7.52502C76.1979 6.44169 74.8681 5.90002 73.3004 5.90002H63.1383V2.90002C63.1383 2.1778 62.8724 1.53891 62.3405 0.983356C61.8086 0.427799 61.1507 0.150024 60.3668 0.150024H8.71643C7.93258 0.150024 7.2607 0.427799 6.70081 0.983356C6.14091 1.53891 5.86096 2.1778 5.86096 2.90002V27.15C5.86096 27.5389 6.00094 27.8584 6.28088 28.1084C6.56083 28.3584 6.86877 28.4834 7.20471 28.4834C7.59664 28.4834 7.91858 28.3584 8.17053 28.1084C8.42249 27.8584 8.54846 27.5389 8.54846 27.15V2.90002C8.54846 2.90002 8.56246 2.88614 8.59045 2.85836C8.61845 2.83058 8.66044 2.81669 8.71643 2.81669H60.3668C60.4228 2.81669 60.4508 2.83058 60.4508 2.85836C60.4508 2.88614 60.4508 2.90002 60.4508 2.90002V27.15C60.4508 27.5389 60.5908 27.8584 60.8707 28.1084C61.1507 28.3584 61.4586 28.4834 61.7946 28.4834C62.1865 28.4834 62.5084 28.3584 62.7604 28.1084C63.0123 27.8584 63.1383 27.5389 63.1383 27.15V25.65H79.0953C80.0472 25.65 80.901 25.9278 81.6569 26.4834C82.4127 27.0389 82.9306 27.7611 83.2106 28.65H79.0953C78.7034 28.65 78.3815 28.7889 78.1295 29.0667C77.8776 29.3445 77.7516 29.65 77.7516 29.9834V32.8167C77.7516 33.9834 78.1575 34.9834 78.9694 35.8167C79.7812 36.65 80.775 37.0667 81.9508 37.0667H83.4625V42.9H79.9352C79.3753 41.2334 78.3535 39.8722 76.8698 38.8167C75.386 37.7611 73.7203 37.2334 71.8727 37.2334C70.025 37.2334 68.3593 37.7611 66.8756 38.8167C65.3919 39.8722 64.3701 41.2334 63.8102 42.9H63.1383V32.8167C63.1383 32.4834 63.0123 32.1778 62.7604 31.9C62.5084 31.6222 62.1865 31.4834 61.7946 31.4834C61.4586 31.4834 61.1507 31.6222 60.8707 31.9C60.5908 32.1778 60.4508 32.4834 60.4508 32.8167V42.9H32.568C31.9521 41.2334 30.9163 39.8722 29.4606 38.8167C28.0048 37.7611 26.3531 37.2334 24.5055 37.2334C22.6018 37.2334 20.9222 37.7611 19.4664 38.8167C18.0107 39.8722 17.0029 41.2334 16.443 42.9H8.71643C8.66044 42.9 8.61845 42.9 8.59045 42.9C8.56246 42.9 8.54846 42.8722 8.54846 42.8167V39.9H14.4274C14.8193 39.9 15.1412 39.7611 15.3932 39.4834C15.6451 39.2056 15.7711 38.9 15.7711 38.5667C15.7711 38.1778 15.6451 37.8584 15.3932 37.6084C15.1412 37.3584 14.8193 37.2334 14.4274 37.2334H1.49377C1.10185 37.2334 0.779907 37.3584 0.527954 37.6084C0.276001 37.8584 0.150024 38.1778 0.150024 38.5667C0.150024 38.9 0.276001 39.2056 0.527954 39.4834C0.779907 39.7611 1.10185 39.9 1.49377 39.9H5.86096V42.8167C5.86096 43.5945 6.14091 44.2472 6.70081 44.775C7.2607 45.3028 7.93258 45.5667 8.71643 45.5667H15.9391C15.9391 45.6222 15.9391 45.65 15.9391 45.65C15.9391 47.9834 16.7789 49.9834 18.4586 51.65C20.1383 53.3167 22.1539 54.15 24.5055 54.15C26.8571 54.15 28.8587 53.3167 30.5104 51.65C32.1621 49.9834 32.9879 47.9834 32.9879 45.65C32.9879 45.65 32.9879 45.6222 32.9879 45.5667H63.3903C63.3903 45.6222 63.3763 45.65 63.3483 45.65C63.3203 45.65 63.3063 45.65 63.3063 45.65C63.3063 47.9834 64.1461 49.9834 65.8258 51.65C67.5055 53.3167 69.5211 54.15 71.8727 54.15C74.2242 54.15 76.2399 53.3167 77.9196 51.65C79.5992 49.9834 80.4391 47.9834 80.4391 45.65C80.4391 45.65 80.4391 45.6222 80.4391 45.5667H84.8063C85.1982 45.5667 85.5201 45.4417 85.7721 45.1917C86.024 44.9417 86.15 44.6222 86.15 44.2334V29.9834C86.15 28.2611 85.5761 26.7334 84.4283 25.4C83.2806 24.0667 81.8388 23.2889 80.1031 23.0667ZM63.1383 8.56669H73.3004C74.1403 8.56669 74.8401 8.84447 75.4 9.40002C75.9599 9.95558 76.2399 10.65 76.2399 11.4834V11.5667H63.1383V8.56669ZM63.1383 22.9834V14.2334H75.1481L77.3317 22.9834H63.1383ZM24.5055 51.4834C22.8818 51.4834 21.4961 50.9139 20.3483 49.775C19.2005 48.6361 18.6266 47.2611 18.6266 45.65C18.6266 44.0945 19.2005 42.7472 20.3483 41.6084C21.4961 40.4695 22.8818 39.9 24.5055 39.9C26.0732 39.9 27.4309 40.4695 28.5787 41.6084C29.7265 42.7472 30.3004 44.0945 30.3004 45.65C30.3004 47.2611 29.7265 48.6361 28.5787 49.775C27.4309 50.9139 26.0732 51.4834 24.5055 51.4834ZM71.8727 51.4834C70.249 51.4834 68.8772 50.9139 67.7574 49.775C66.6377 48.6361 66.0778 47.2611 66.0778 45.65C66.0778 44.0945 66.6377 42.7472 67.7574 41.6084C68.8772 40.4695 70.249 39.9 71.8727 39.9C73.4964 39.9 74.8821 40.4695 76.0299 41.6084C77.1777 42.7472 77.7516 44.0945 77.7516 45.65C77.7516 47.2611 77.1777 48.6361 76.0299 49.775C74.8821 50.9139 73.4964 51.4834 71.8727 51.4834ZM83.4625 34.4H81.9508C81.5029 34.4 81.139 34.2472 80.859 33.9417C80.5791 33.6361 80.4391 33.2611 80.4391 32.8167V31.3167H83.4625V34.4ZM24.5055 42.9C23.7216 42.9 23.0638 43.1778 22.5319 43.7334C22 44.2889 21.734 44.9278 21.734 45.65C21.734 46.4278 22 47.0806 22.5319 47.6084C23.0638 48.1361 23.7216 48.4 24.5055 48.4C25.2334 48.4 25.8772 48.1361 26.4371 47.6084C26.997 47.0806 27.277 46.4278 27.277 45.65C27.277 44.9278 26.997 44.2889 26.4371 43.7334C25.8772 43.1778 25.2334 42.9 24.5055 42.9ZM71.8727 42.9C71.0888 42.9 70.4309 43.1778 69.899 43.7334C69.3671 44.2889 69.1012 44.9278 69.1012 45.65C69.1012 46.4278 69.3671 47.0806 69.899 47.6084C70.4309 48.1361 71.0888 48.4 71.8727 48.4C72.6565 48.4 73.3144 48.1361 73.8463 47.6084C74.3782 47.0806 74.6442 46.4278 74.6442 45.65C74.6442 44.9278 74.3782 44.2889 73.8463 43.7334C73.3144 43.1778 72.6565 42.9 71.8727 42.9ZM56.0836 37.2334H35.9274C35.5914 37.2334 35.2835 37.3584 35.0035 37.6084C34.7236 37.8584 34.5836 38.1778 34.5836 38.5667C34.5836 38.9 34.7236 39.2056 35.0035 39.4834C35.2835 39.7611 35.5914 39.9 35.9274 39.9H56.0836C56.4755 39.9 56.7975 39.7611 57.0494 39.4834C57.3014 39.2056 57.4274 38.9 57.4274 38.5667C57.4274 38.1778 57.3014 37.8584 57.0494 37.6084C56.7975 37.3584 56.4755 37.2334 56.0836 37.2334ZM21.566 31.4834H4.34924C4.01331 31.4834 3.70536 31.6222 3.42542 31.9C3.14547 32.1778 3.00549 32.4834 3.00549 32.8167C3.00549 33.2056 3.14547 33.525 3.42542 33.775C3.70536 34.025 4.01331 34.15 4.34924 34.15H21.566C21.958 34.15 22.2799 34.025 22.5319 33.775C22.7838 33.525 22.9098 33.2056 22.9098 32.8167C22.9098 32.4834 22.7838 32.1778 22.5319 31.9C22.2799 31.6222 21.958 31.4834 21.566 31.4834ZM47.0133 13.4C46.7334 13.1222 46.4114 12.9834 46.0475 12.9834C45.6836 12.9834 45.3616 13.1222 45.0817 13.4L33.0719 25.2334L26.8571 19.0667C26.5771 18.7889 26.2552 18.65 25.8912 18.65C25.5273 18.65 25.2054 18.7889 24.9254 19.0667C24.7015 19.3445 24.5895 19.6639 24.5895 20.025C24.5895 20.3861 24.7015 20.7056 24.9254 20.9834L32.1481 28.0667C32.2601 28.2334 32.4 28.3445 32.568 28.4C32.736 28.4556 32.9039 28.4834 33.0719 28.4834C33.2399 28.4834 33.4078 28.4556 33.5758 28.4C33.7438 28.3445 33.9117 28.2334 34.0797 28.0667L47.0133 15.2334C47.2373 15.0111 47.3492 14.7056 47.3492 14.3167C47.3492 13.9278 47.2373 13.6222 47.0133 13.4Z" stroke="#9FCE00" stroke-width="0.3" mask="url(#path-1-outside-1_1_456)"/>
</svg>
